<mxfile host="65bd71144e">
    <diagram id="TTA1MEbsLOoUclurFU08" name="第 1 页">
        <mxGraphModel dx="1182" dy="150" grid="0" gridSize="10" guides="1" tooltips="1" connect="1" arrows="1" fold="1" page="1" pageScale="1" pageWidth="827" pageHeight="1169" background="#FFFFFF" math="0" shadow="0">
            <root>
                <mxCell id="0"/>
                <mxCell id="1" parent="0"/>
                <mxCell id="4" value="" style="edgeStyle=none;html=1;strokeWidth=2;fontSize=18;fillColor=#f5f5f5;strokeColor=#666666;" parent="1" source="2" target="3" edge="1">
                    <mxGeometry relative="1" as="geometry"/>
                </mxCell>
                <mxCell id="2" value="传入参数合法？" style="rhombus;whiteSpace=wrap;html=1;strokeWidth=2;fontSize=18;fillColor=#f5f5f5;fontColor=#333333;strokeColor=#666666;" parent="1" vertex="1">
                    <mxGeometry x="8" y="-505" width="200" height="80" as="geometry"/>
                </mxCell>
                <mxCell id="6" value="" style="edgeStyle=none;html=1;fontSize=18;strokeWidth=2;fillColor=#f5f5f5;strokeColor=#666666;" parent="1" source="3" target="5" edge="1">
                    <mxGeometry relative="1" as="geometry"/>
                </mxCell>
                <mxCell id="3" value="环形缓存。&lt;br style=&quot;font-size: 18px;&quot;&gt;动态分配内存" style="whiteSpace=wrap;html=1;strokeWidth=2;fontSize=18;fillColor=#f5f5f5;fontColor=#333333;strokeColor=#666666;" parent="1" vertex="1">
                    <mxGeometry x="48" y="-385" width="120" height="60" as="geometry"/>
                </mxCell>
                <mxCell id="8" value="" style="edgeStyle=none;html=1;fontSize=18;strokeWidth=2;fillColor=#f5f5f5;strokeColor=#666666;" parent="1" source="5" target="7" edge="1">
                    <mxGeometry relative="1" as="geometry"/>
                </mxCell>
                <mxCell id="5" value="初始ring_fifo&lt;br&gt;结构体" style="whiteSpace=wrap;html=1;fontSize=18;strokeWidth=2;fillColor=#f5f5f5;fontColor=#333333;strokeColor=#666666;" parent="1" vertex="1">
                    <mxGeometry x="48" y="-285" width="120" height="60" as="geometry"/>
                </mxCell>
                <mxCell id="7" value="清空缓存区" style="whiteSpace=wrap;html=1;fontSize=18;strokeWidth=2;fillColor=#f5f5f5;fontColor=#333333;strokeColor=#666666;" parent="1" vertex="1">
                    <mxGeometry x="48" y="-185" width="120" height="60" as="geometry"/>
                </mxCell>
                <mxCell id="9" value="" style="endArrow=none;html=1;fontSize=18;strokeWidth=2;exitX=0.5;exitY=1;exitDx=0;exitDy=0;fillColor=#f5f5f5;strokeColor=#666666;" parent="1" source="7" edge="1">
                    <mxGeometry width="50" height="50" relative="1" as="geometry">
                        <mxPoint x="258" y="-215" as="sourcePoint"/>
                        <mxPoint x="108" y="-55" as="targetPoint"/>
                    </mxGeometry>
                </mxCell>
                <mxCell id="10" value="" style="ellipse;whiteSpace=wrap;html=1;aspect=fixed;fontSize=18;strokeWidth=2;fillColor=#f5f5f5;fontColor=#333333;strokeColor=#666666;" parent="1" vertex="1">
                    <mxGeometry x="83" y="-85" width="50" height="50" as="geometry"/>
                </mxCell>
                <mxCell id="11" value="" style="endArrow=none;html=1;fontSize=18;strokeWidth=2;entryX=1;entryY=0.5;entryDx=0;entryDy=0;exitX=1;exitY=0.5;exitDx=0;exitDy=0;fillColor=#f5f5f5;strokeColor=#666666;" parent="1" source="10" target="2" edge="1">
                    <mxGeometry width="50" height="50" relative="1" as="geometry">
                        <mxPoint x="258" y="-215" as="sourcePoint"/>
                        <mxPoint x="308" y="-265" as="targetPoint"/>
                        <Array as="points">
                            <mxPoint x="238" y="-60"/>
                            <mxPoint x="238" y="-465"/>
                        </Array>
                    </mxGeometry>
                </mxCell>
                <mxCell id="12" value="是" style="text;html=1;align=center;verticalAlign=middle;resizable=0;points=[];autosize=1;strokeColor=#666666;fillColor=#f5f5f5;fontSize=18;fontColor=#333333;" parent="1" vertex="1">
                    <mxGeometry x="123" y="-430" width="30" height="30" as="geometry"/>
                </mxCell>
                <mxCell id="13" value="否" style="text;html=1;align=center;verticalAlign=middle;resizable=0;points=[];autosize=1;strokeColor=#666666;fillColor=#f5f5f5;fontSize=18;fontColor=#333333;" parent="1" vertex="1">
                    <mxGeometry x="208" y="-505" width="30" height="30" as="geometry"/>
                </mxCell>
                <mxCell id="15" value="调用结束" style="text;html=1;align=center;verticalAlign=middle;resizable=0;points=[];autosize=1;strokeColor=#666666;fillColor=#f5f5f5;fontSize=18;fontColor=#333333;" parent="1" vertex="1">
                    <mxGeometry x="137" y="-46" width="90" height="30" as="geometry"/>
                </mxCell>
                <mxCell id="16" value="" style="endArrow=none;html=1;fontSize=18;strokeWidth=2;entryX=0.5;entryY=0;entryDx=0;entryDy=0;startArrow=none;fillColor=#f5f5f5;strokeColor=#666666;" parent="1" source="17" target="2" edge="1">
                    <mxGeometry width="50" height="50" relative="1" as="geometry">
                        <mxPoint x="108" y="-545" as="sourcePoint"/>
                        <mxPoint x="308" y="-265" as="targetPoint"/>
                    </mxGeometry>
                </mxCell>
                <mxCell id="17" value="" style="ellipse;whiteSpace=wrap;html=1;aspect=fixed;fontSize=18;strokeWidth=2;fillColor=#f5f5f5;fontColor=#333333;strokeColor=#666666;" parent="1" vertex="1">
                    <mxGeometry x="83" y="-565" width="50" height="50" as="geometry"/>
                </mxCell>
                <mxCell id="19" value="调用开始" style="text;html=1;align=center;verticalAlign=middle;resizable=0;points=[];autosize=1;strokeColor=#666666;fillColor=#f5f5f5;fontSize=18;fontColor=#333333;" parent="1" vertex="1">
                    <mxGeometry x="133" y="-565" width="90" height="30" as="geometry"/>
                </mxCell>
                <mxCell id="20" value="" style="edgeStyle=none;html=1;strokeWidth=2;fontSize=18;fillColor=#f5f5f5;strokeColor=#666666;" parent="1" source="21" target="23" edge="1">
                    <mxGeometry relative="1" as="geometry"/>
                </mxCell>
                <mxCell id="21" value="传入参数合法？" style="rhombus;whiteSpace=wrap;html=1;strokeWidth=2;fontSize=18;fillColor=#f5f5f5;fontColor=#333333;strokeColor=#666666;" parent="1" vertex="1">
                    <mxGeometry x="288" y="-505" width="200" height="80" as="geometry"/>
                </mxCell>
                <mxCell id="22" value="" style="edgeStyle=none;html=1;fontSize=18;strokeWidth=2;fillColor=#f5f5f5;strokeColor=#666666;" parent="1" source="23" target="25" edge="1">
                    <mxGeometry relative="1" as="geometry"/>
                </mxCell>
                <mxCell id="23" value="释放内存" style="whiteSpace=wrap;html=1;strokeWidth=2;fontSize=18;fillColor=#f5f5f5;fontColor=#333333;strokeColor=#666666;" parent="1" vertex="1">
                    <mxGeometry x="330" y="-395" width="120" height="60" as="geometry"/>
                </mxCell>
                <mxCell id="25" value="令指针为空" style="whiteSpace=wrap;html=1;fontSize=18;strokeWidth=2;fillColor=#f5f5f5;fontColor=#333333;strokeColor=#666666;" parent="1" vertex="1">
                    <mxGeometry x="328" y="-285" width="120" height="60" as="geometry"/>
                </mxCell>
                <mxCell id="27" value="" style="endArrow=none;html=1;fontSize=18;strokeWidth=2;exitX=0.5;exitY=1;exitDx=0;exitDy=0;entryX=0.5;entryY=0;entryDx=0;entryDy=0;fillColor=#f5f5f5;strokeColor=#666666;" parent="1" source="25" target="28" edge="1">
                    <mxGeometry width="50" height="50" relative="1" as="geometry">
                        <mxPoint x="388" y="-125" as="sourcePoint"/>
                        <mxPoint x="388" y="-55" as="targetPoint"/>
                    </mxGeometry>
                </mxCell>
                <mxCell id="28" value="" style="ellipse;whiteSpace=wrap;html=1;aspect=fixed;fontSize=18;strokeWidth=2;fillColor=#f5f5f5;fontColor=#333333;strokeColor=#666666;" parent="1" vertex="1">
                    <mxGeometry x="363" y="-185" width="50" height="50" as="geometry"/>
                </mxCell>
                <mxCell id="29" value="" style="endArrow=none;html=1;fontSize=18;strokeWidth=2;entryX=1;entryY=0.5;entryDx=0;entryDy=0;exitX=1;exitY=0.5;exitDx=0;exitDy=0;fillColor=#f5f5f5;strokeColor=#666666;" parent="1" source="28" target="21" edge="1">
                    <mxGeometry width="50" height="50" relative="1" as="geometry">
                        <mxPoint x="538" y="-215" as="sourcePoint"/>
                        <mxPoint x="588" y="-265" as="targetPoint"/>
                        <Array as="points">
                            <mxPoint x="518" y="-160"/>
                            <mxPoint x="518" y="-465"/>
                        </Array>
                    </mxGeometry>
                </mxCell>
                <mxCell id="30" value="是" style="text;html=1;align=center;verticalAlign=middle;resizable=0;points=[];autosize=1;strokeColor=#666666;fillColor=#f5f5f5;fontSize=18;fontColor=#333333;" parent="1" vertex="1">
                    <mxGeometry x="403" y="-430" width="30" height="30" as="geometry"/>
                </mxCell>
                <mxCell id="31" value="否" style="text;html=1;align=center;verticalAlign=middle;resizable=0;points=[];autosize=1;strokeColor=#666666;fillColor=#f5f5f5;fontSize=18;fontColor=#333333;" parent="1" vertex="1">
                    <mxGeometry x="488" y="-505" width="30" height="30" as="geometry"/>
                </mxCell>
                <mxCell id="32" value="调用结束" style="text;html=1;align=center;verticalAlign=middle;resizable=0;points=[];autosize=1;strokeColor=#666666;fillColor=#f5f5f5;fontSize=18;fontColor=#333333;" parent="1" vertex="1">
                    <mxGeometry x="408" y="-145" width="90" height="30" as="geometry"/>
                </mxCell>
                <mxCell id="33" value="" style="endArrow=none;html=1;fontSize=18;strokeWidth=2;entryX=0.5;entryY=0;entryDx=0;entryDy=0;startArrow=none;fillColor=#f5f5f5;strokeColor=#666666;" parent="1" source="34" target="21" edge="1">
                    <mxGeometry width="50" height="50" relative="1" as="geometry">
                        <mxPoint x="388" y="-545" as="sourcePoint"/>
                        <mxPoint x="588" y="-265" as="targetPoint"/>
                    </mxGeometry>
                </mxCell>
                <mxCell id="34" value="" style="ellipse;whiteSpace=wrap;html=1;aspect=fixed;fontSize=18;strokeWidth=2;fillColor=#f5f5f5;fontColor=#333333;strokeColor=#666666;" parent="1" vertex="1">
                    <mxGeometry x="363" y="-565" width="50" height="50" as="geometry"/>
                </mxCell>
                <mxCell id="35" value="调用开始" style="text;html=1;align=center;verticalAlign=middle;resizable=0;points=[];autosize=1;strokeColor=#666666;fillColor=#f5f5f5;fontSize=18;fontColor=#333333;" parent="1" vertex="1">
                    <mxGeometry x="413" y="-565" width="90" height="30" as="geometry"/>
                </mxCell>
                <mxCell id="36" value="" style="edgeStyle=none;html=1;strokeWidth=2;fontSize=18;fillColor=#f5f5f5;strokeColor=#666666;" parent="1" source="37" edge="1">
                    <mxGeometry relative="1" as="geometry">
                        <mxPoint x="678" y="-385" as="targetPoint"/>
                    </mxGeometry>
                </mxCell>
                <mxCell id="37" value="传入参数合法？" style="rhombus;whiteSpace=wrap;html=1;strokeWidth=2;fontSize=18;fillColor=#f5f5f5;fontColor=#333333;strokeColor=#666666;" parent="1" vertex="1">
                    <mxGeometry x="578" y="-505" width="200" height="80" as="geometry"/>
                </mxCell>
                <mxCell id="38" value="" style="edgeStyle=none;html=1;fontSize=18;strokeWidth=2;fillColor=#f5f5f5;strokeColor=#666666;" parent="1" target="41" edge="1">
                    <mxGeometry relative="1" as="geometry">
                        <mxPoint x="678" y="-325" as="sourcePoint"/>
                    </mxGeometry>
                </mxCell>
                <mxCell id="40" value="" style="edgeStyle=none;html=1;fontSize=18;strokeWidth=2;entryX=0;entryY=0.5;entryDx=0;entryDy=0;exitX=0.5;exitY=1;exitDx=0;exitDy=0;fillColor=#f5f5f5;strokeColor=#666666;" parent="1" source="41" target="72" edge="1">
                    <mxGeometry relative="1" as="geometry">
                        <mxPoint x="548" y="-105" as="sourcePoint"/>
                        <mxPoint x="678" y="-185" as="targetPoint"/>
                        <Array as="points">
                            <mxPoint x="678" y="-185"/>
                            <mxPoint x="558" y="-185"/>
                            <mxPoint x="558" y="-265"/>
                            <mxPoint x="558" y="-345"/>
                        </Array>
                    </mxGeometry>
                </mxCell>
                <mxCell id="41" value="单字节的读出" style="whiteSpace=wrap;html=1;fontSize=18;strokeWidth=2;fillColor=#f5f5f5;fontColor=#333333;strokeColor=#666666;" parent="1" vertex="1">
                    <mxGeometry x="618" y="-265" width="120" height="60" as="geometry"/>
                </mxCell>
                <mxCell id="43" value="" style="endArrow=none;html=1;fontSize=18;strokeWidth=2;exitX=0.5;exitY=1;exitDx=0;exitDy=0;fillColor=#f5f5f5;strokeColor=#666666;" parent="1" edge="1">
                    <mxGeometry width="50" height="50" relative="1" as="geometry">
                        <mxPoint x="678" y="-125" as="sourcePoint"/>
                        <mxPoint x="678" y="-55" as="targetPoint"/>
                    </mxGeometry>
                </mxCell>
                <mxCell id="44" value="" style="ellipse;whiteSpace=wrap;html=1;aspect=fixed;fontSize=18;strokeWidth=2;fillColor=#f5f5f5;fontColor=#333333;strokeColor=#666666;" parent="1" vertex="1">
                    <mxGeometry x="653" y="-85" width="50" height="50" as="geometry"/>
                </mxCell>
                <mxCell id="45" value="" style="endArrow=none;html=1;fontSize=18;strokeWidth=2;entryX=1;entryY=0.5;entryDx=0;entryDy=0;exitX=1;exitY=0.5;exitDx=0;exitDy=0;fillColor=#f5f5f5;strokeColor=#666666;" parent="1" source="44" target="37" edge="1">
                    <mxGeometry width="50" height="50" relative="1" as="geometry">
                        <mxPoint x="828" y="-215" as="sourcePoint"/>
                        <mxPoint x="878" y="-265" as="targetPoint"/>
                        <Array as="points">
                            <mxPoint x="808" y="-60"/>
                            <mxPoint x="808" y="-465"/>
                        </Array>
                    </mxGeometry>
                </mxCell>
                <mxCell id="46" value="是" style="text;html=1;align=center;verticalAlign=middle;resizable=0;points=[];autosize=1;strokeColor=#666666;fillColor=#f5f5f5;fontSize=18;fontColor=#333333;" parent="1" vertex="1">
                    <mxGeometry x="693" y="-430" width="30" height="30" as="geometry"/>
                </mxCell>
                <mxCell id="47" value="否" style="text;html=1;align=center;verticalAlign=middle;resizable=0;points=[];autosize=1;strokeColor=#666666;fillColor=#f5f5f5;fontSize=18;fontColor=#333333;" parent="1" vertex="1">
                    <mxGeometry x="778" y="-505" width="30" height="30" as="geometry"/>
                </mxCell>
                <mxCell id="48" value="调用结束" style="text;html=1;align=center;verticalAlign=middle;resizable=0;points=[];autosize=1;strokeColor=#666666;fillColor=#f5f5f5;fontSize=18;fontColor=#333333;" parent="1" vertex="1">
                    <mxGeometry x="718" y="-49" width="90" height="30" as="geometry"/>
                </mxCell>
                <mxCell id="49" value="" style="endArrow=none;html=1;fontSize=18;strokeWidth=2;entryX=0.5;entryY=0;entryDx=0;entryDy=0;startArrow=none;fillColor=#f5f5f5;strokeColor=#666666;" parent="1" source="50" target="37" edge="1">
                    <mxGeometry width="50" height="50" relative="1" as="geometry">
                        <mxPoint x="678" y="-545" as="sourcePoint"/>
                        <mxPoint x="878" y="-265" as="targetPoint"/>
                    </mxGeometry>
                </mxCell>
                <mxCell id="50" value="" style="ellipse;whiteSpace=wrap;html=1;aspect=fixed;fontSize=18;strokeWidth=2;fillColor=#f5f5f5;fontColor=#333333;strokeColor=#666666;" parent="1" vertex="1">
                    <mxGeometry x="653" y="-565" width="50" height="50" as="geometry"/>
                </mxCell>
                <mxCell id="51" value="调用开始" style="text;html=1;align=center;verticalAlign=middle;resizable=0;points=[];autosize=1;strokeColor=#666666;fillColor=#f5f5f5;fontSize=18;fontColor=#333333;" parent="1" vertex="1">
                    <mxGeometry x="703" y="-565" width="90" height="30" as="geometry"/>
                </mxCell>
                <mxCell id="52" value="init" style="text;html=1;align=center;verticalAlign=middle;resizable=0;points=[];autosize=1;strokeColor=#666666;fillColor=#f5f5f5;fontSize=18;fontColor=#333333;" parent="1" vertex="1">
                    <mxGeometry x="8" y="-590" width="40" height="30" as="geometry"/>
                </mxCell>
                <mxCell id="53" value="deinit" style="text;html=1;align=center;verticalAlign=middle;resizable=0;points=[];autosize=1;strokeColor=#666666;fillColor=#f5f5f5;fontSize=18;fontColor=#333333;" parent="1" vertex="1">
                    <mxGeometry x="278" y="-590" width="60" height="30" as="geometry"/>
                </mxCell>
                <mxCell id="54" value="read" style="text;html=1;align=center;verticalAlign=middle;resizable=0;points=[];autosize=1;strokeColor=#666666;fillColor=#f5f5f5;fontSize=18;fontColor=#333333;" parent="1" vertex="1">
                    <mxGeometry x="603" y="-590" width="50" height="30" as="geometry"/>
                </mxCell>
                <mxCell id="55" value="" style="edgeStyle=none;html=1;strokeWidth=2;fontSize=18;fillColor=#f5f5f5;strokeColor=#666666;" parent="1" source="56" edge="1">
                    <mxGeometry relative="1" as="geometry">
                        <mxPoint x="948" y="-385" as="targetPoint"/>
                    </mxGeometry>
                </mxCell>
                <mxCell id="56" value="传入参数合法？" style="rhombus;whiteSpace=wrap;html=1;strokeWidth=2;fontSize=18;fillColor=#f5f5f5;fontColor=#333333;strokeColor=#666666;" parent="1" vertex="1">
                    <mxGeometry x="848" y="-505" width="200" height="80" as="geometry"/>
                </mxCell>
                <mxCell id="57" value="" style="edgeStyle=none;html=1;fontSize=18;strokeWidth=2;fillColor=#f5f5f5;strokeColor=#666666;" parent="1" edge="1">
                    <mxGeometry relative="1" as="geometry">
                        <mxPoint x="948" y="-325" as="sourcePoint"/>
                        <mxPoint x="948" y="-285" as="targetPoint"/>
                    </mxGeometry>
                </mxCell>
                <mxCell id="62" value="" style="endArrow=none;html=1;fontSize=18;strokeWidth=2;exitX=0.5;exitY=1;exitDx=0;exitDy=0;fillColor=#f5f5f5;strokeColor=#666666;" parent="1" edge="1">
                    <mxGeometry width="50" height="50" relative="1" as="geometry">
                        <mxPoint x="948" y="-125" as="sourcePoint"/>
                        <mxPoint x="948" y="-55" as="targetPoint"/>
                    </mxGeometry>
                </mxCell>
                <mxCell id="63" value="" style="ellipse;whiteSpace=wrap;html=1;aspect=fixed;fontSize=18;strokeWidth=2;fillColor=#f5f5f5;fontColor=#333333;strokeColor=#666666;" parent="1" vertex="1">
                    <mxGeometry x="923" y="-85" width="50" height="50" as="geometry"/>
                </mxCell>
                <mxCell id="64" value="" style="endArrow=none;html=1;fontSize=18;strokeWidth=2;entryX=1;entryY=0.5;entryDx=0;entryDy=0;exitX=1;exitY=0.5;exitDx=0;exitDy=0;fillColor=#f5f5f5;strokeColor=#666666;" parent="1" source="63" target="56" edge="1">
                    <mxGeometry width="50" height="50" relative="1" as="geometry">
                        <mxPoint x="1098" y="-215" as="sourcePoint"/>
                        <mxPoint x="1148" y="-265" as="targetPoint"/>
                        <Array as="points">
                            <mxPoint x="1078" y="-60"/>
                            <mxPoint x="1078" y="-465"/>
                        </Array>
                    </mxGeometry>
                </mxCell>
                <mxCell id="65" value="是" style="text;html=1;align=center;verticalAlign=middle;resizable=0;points=[];autosize=1;strokeColor=#666666;fillColor=#f5f5f5;fontSize=18;fontColor=#333333;" parent="1" vertex="1">
                    <mxGeometry x="963" y="-430" width="30" height="30" as="geometry"/>
                </mxCell>
                <mxCell id="66" value="否" style="text;html=1;align=center;verticalAlign=middle;resizable=0;points=[];autosize=1;strokeColor=#666666;fillColor=#f5f5f5;fontSize=18;fontColor=#333333;" parent="1" vertex="1">
                    <mxGeometry x="1048" y="-505" width="30" height="30" as="geometry"/>
                </mxCell>
                <mxCell id="67" value="调用结束" style="text;html=1;align=center;verticalAlign=middle;resizable=0;points=[];autosize=1;strokeColor=#666666;fillColor=#f5f5f5;fontSize=18;fontColor=#333333;" parent="1" vertex="1">
                    <mxGeometry x="981" y="-44" width="90" height="30" as="geometry"/>
                </mxCell>
                <mxCell id="68" value="" style="endArrow=none;html=1;fontSize=18;strokeWidth=2;entryX=0.5;entryY=0;entryDx=0;entryDy=0;startArrow=none;fillColor=#f5f5f5;strokeColor=#666666;" parent="1" source="69" target="56" edge="1">
                    <mxGeometry width="50" height="50" relative="1" as="geometry">
                        <mxPoint x="948" y="-545" as="sourcePoint"/>
                        <mxPoint x="1148" y="-265" as="targetPoint"/>
                    </mxGeometry>
                </mxCell>
                <mxCell id="69" value="" style="ellipse;whiteSpace=wrap;html=1;aspect=fixed;fontSize=18;strokeWidth=2;fillColor=#f5f5f5;fontColor=#333333;strokeColor=#666666;" parent="1" vertex="1">
                    <mxGeometry x="923" y="-565" width="50" height="50" as="geometry"/>
                </mxCell>
                <mxCell id="70" value="调用开始" style="text;html=1;align=center;verticalAlign=middle;resizable=0;points=[];autosize=1;strokeColor=#666666;fillColor=#f5f5f5;fontSize=18;fontColor=#333333;" parent="1" vertex="1">
                    <mxGeometry x="973" y="-565" width="90" height="30" as="geometry"/>
                </mxCell>
                <mxCell id="71" value="write" style="text;html=1;align=center;verticalAlign=middle;resizable=0;points=[];autosize=1;strokeColor=#666666;fillColor=#f5f5f5;fontSize=18;fontColor=#333333;" parent="1" vertex="1">
                    <mxGeometry x="843" y="-580" width="50" height="30" as="geometry"/>
                </mxCell>
                <mxCell id="72" value="未完成读取？" style="rhombus;whiteSpace=wrap;html=1;strokeWidth=2;fontSize=18;fillColor=#f5f5f5;fontColor=#333333;strokeColor=#666666;" parent="1" vertex="1">
                    <mxGeometry x="578" y="-385" width="200" height="80" as="geometry"/>
                </mxCell>
                <mxCell id="73" value="" style="endArrow=none;html=1;fontSize=18;strokeWidth=2;entryX=1;entryY=0.5;entryDx=0;entryDy=0;fillColor=#f5f5f5;strokeColor=#666666;" parent="1" target="72" edge="1">
                    <mxGeometry width="50" height="50" relative="1" as="geometry">
                        <mxPoint x="678" y="-125" as="sourcePoint"/>
                        <mxPoint x="728" y="-315" as="targetPoint"/>
                        <Array as="points">
                            <mxPoint x="778" y="-125"/>
                        </Array>
                    </mxGeometry>
                </mxCell>
                <mxCell id="74" value="否" style="text;html=1;align=center;verticalAlign=middle;resizable=0;points=[];autosize=1;strokeColor=#666666;fillColor=#f5f5f5;fontSize=18;fontColor=#333333;" parent="1" vertex="1">
                    <mxGeometry x="758" y="-380" width="30" height="30" as="geometry"/>
                </mxCell>
                <mxCell id="75" value="是" style="text;html=1;align=center;verticalAlign=middle;resizable=0;points=[];autosize=1;strokeColor=#666666;fillColor=#f5f5f5;fontSize=18;fontColor=#333333;" parent="1" vertex="1">
                    <mxGeometry x="693" y="-310" width="30" height="30" as="geometry"/>
                </mxCell>
                <mxCell id="78" value="未完成读取？" style="rhombus;whiteSpace=wrap;html=1;strokeWidth=2;fontSize=18;fillColor=#f5f5f5;fontColor=#333333;strokeColor=#666666;" parent="1" vertex="1">
                    <mxGeometry x="848" y="-400" width="200" height="80" as="geometry"/>
                </mxCell>
                <mxCell id="80" value="" style="edgeStyle=none;html=1;fontSize=18;strokeWidth=2;entryX=0;entryY=0.5;entryDx=0;entryDy=0;exitX=0.5;exitY=1;exitDx=0;exitDy=0;fillColor=#f5f5f5;strokeColor=#666666;" parent="1" source="79" target="78" edge="1">
                    <mxGeometry relative="1" as="geometry">
                        <mxPoint x="948" y="-185" as="targetPoint"/>
                        <Array as="points">
                            <mxPoint x="948" y="-185"/>
                            <mxPoint x="828" y="-185"/>
                            <mxPoint x="828" y="-360"/>
                        </Array>
                    </mxGeometry>
                </mxCell>
                <mxCell id="79" value="单字节的写入" style="whiteSpace=wrap;html=1;fontSize=18;strokeWidth=2;fillColor=#f5f5f5;fontColor=#333333;strokeColor=#666666;" parent="1" vertex="1">
                    <mxGeometry x="888" y="-285" width="120" height="60" as="geometry"/>
                </mxCell>
                <mxCell id="81" value="" style="endArrow=none;html=1;fontSize=18;strokeWidth=2;entryX=1;entryY=0.5;entryDx=0;entryDy=0;fillColor=#f5f5f5;strokeColor=#666666;" parent="1" target="78" edge="1">
                    <mxGeometry width="50" height="50" relative="1" as="geometry">
                        <mxPoint x="948" y="-125" as="sourcePoint"/>
                        <mxPoint x="1048" y="-345" as="targetPoint"/>
                        <Array as="points">
                            <mxPoint x="1048" y="-125"/>
                        </Array>
                    </mxGeometry>
                </mxCell>
                <mxCell id="82" value="否" style="text;html=1;align=center;verticalAlign=middle;resizable=0;points=[];autosize=1;strokeColor=#666666;fillColor=#f5f5f5;fontSize=18;fontColor=#333333;" parent="1" vertex="1">
                    <mxGeometry x="1038" y="-395" width="30" height="30" as="geometry"/>
                </mxCell>
                <mxCell id="83" value="是" style="text;html=1;align=center;verticalAlign=middle;resizable=0;points=[];autosize=1;strokeColor=#666666;fillColor=#f5f5f5;fontSize=18;fontColor=#333333;" parent="1" vertex="1">
                    <mxGeometry x="958" y="-325" width="30" height="30" as="geometry"/>
                </mxCell>
                <mxCell id="84" value="" style="edgeStyle=none;html=1;strokeWidth=2;fontSize=18;fillColor=#f5f5f5;strokeColor=#666666;" parent="1" source="85" target="87" edge="1">
                    <mxGeometry relative="1" as="geometry"/>
                </mxCell>
                <mxCell id="85" value="传入参数合法？" style="rhombus;whiteSpace=wrap;html=1;strokeWidth=2;fontSize=18;fillColor=#f5f5f5;fontColor=#333333;strokeColor=#666666;" parent="1" vertex="1">
                    <mxGeometry x="15" y="682" width="200" height="80" as="geometry"/>
                </mxCell>
                <mxCell id="86" value="" style="edgeStyle=none;html=1;fontSize=18;strokeWidth=2;fillColor=#f5f5f5;strokeColor=#666666;" parent="1" source="87" target="89" edge="1">
                    <mxGeometry relative="1" as="geometry"/>
                </mxCell>
                <mxCell id="87" value="复位hup解析状态机" style="whiteSpace=wrap;html=1;strokeWidth=2;fontSize=18;fillColor=#f5f5f5;fontColor=#333333;strokeColor=#666666;" parent="1" vertex="1">
                    <mxGeometry x="55" y="802" width="120" height="60" as="geometry"/>
                </mxCell>
                <mxCell id="88" value="" style="edgeStyle=none;html=1;fontSize=18;strokeWidth=2;fillColor=#f5f5f5;strokeColor=#666666;" parent="1" source="89" target="90" edge="1">
                    <mxGeometry relative="1" as="geometry"/>
                </mxCell>
                <mxCell id="89" value="设定解析成功的处理函数" style="whiteSpace=wrap;html=1;fontSize=18;strokeWidth=2;fillColor=#f5f5f5;fontColor=#333333;strokeColor=#666666;" parent="1" vertex="1">
                    <mxGeometry x="55" y="902" width="120" height="60" as="geometry"/>
                </mxCell>
                <mxCell id="90" value="动态分配内存负载数据区域" style="whiteSpace=wrap;html=1;fontSize=18;strokeWidth=2;fillColor=#f5f5f5;fontColor=#333333;strokeColor=#666666;" parent="1" vertex="1">
                    <mxGeometry x="55" y="1002" width="120" height="60" as="geometry"/>
                </mxCell>
                <mxCell id="91" value="" style="endArrow=none;html=1;fontSize=18;strokeWidth=2;exitX=0.5;exitY=1;exitDx=0;exitDy=0;fillColor=#f5f5f5;strokeColor=#666666;" parent="1" source="90" edge="1">
                    <mxGeometry width="50" height="50" relative="1" as="geometry">
                        <mxPoint x="265" y="972" as="sourcePoint"/>
                        <mxPoint x="115" y="1132" as="targetPoint"/>
                    </mxGeometry>
                </mxCell>
                <mxCell id="92" value="" style="ellipse;whiteSpace=wrap;html=1;aspect=fixed;fontSize=18;strokeWidth=2;fillColor=#f5f5f5;fontColor=#333333;strokeColor=#666666;" parent="1" vertex="1">
                    <mxGeometry x="90" y="1102" width="50" height="50" as="geometry"/>
                </mxCell>
                <mxCell id="93" value="" style="endArrow=none;html=1;fontSize=18;strokeWidth=2;entryX=1;entryY=0.5;entryDx=0;entryDy=0;exitX=1;exitY=0.5;exitDx=0;exitDy=0;fillColor=#f5f5f5;strokeColor=#666666;" parent="1" source="92" target="85" edge="1">
                    <mxGeometry width="50" height="50" relative="1" as="geometry">
                        <mxPoint x="265" y="972" as="sourcePoint"/>
                        <mxPoint x="315" y="922" as="targetPoint"/>
                        <Array as="points">
                            <mxPoint x="245" y="1127"/>
                            <mxPoint x="245" y="722"/>
                        </Array>
                    </mxGeometry>
                </mxCell>
                <mxCell id="94" value="是" style="text;html=1;align=center;verticalAlign=middle;resizable=0;points=[];autosize=1;strokeColor=#666666;fillColor=#f5f5f5;fontSize=18;fontColor=#333333;" parent="1" vertex="1">
                    <mxGeometry x="130" y="757" width="30" height="30" as="geometry"/>
                </mxCell>
                <mxCell id="95" value="否" style="text;html=1;align=center;verticalAlign=middle;resizable=0;points=[];autosize=1;strokeColor=#666666;fillColor=#f5f5f5;fontSize=18;fontColor=#333333;" parent="1" vertex="1">
                    <mxGeometry x="215" y="682" width="30" height="30" as="geometry"/>
                </mxCell>
                <mxCell id="96" value="调用结束" style="text;html=1;align=center;verticalAlign=middle;resizable=0;points=[];autosize=1;strokeColor=#666666;fillColor=#f5f5f5;fontSize=18;fontColor=#333333;" parent="1" vertex="1">
                    <mxGeometry x="151" y="1133" width="90" height="30" as="geometry"/>
                </mxCell>
                <mxCell id="97" value="" style="endArrow=none;html=1;fontSize=18;strokeWidth=2;entryX=0.5;entryY=0;entryDx=0;entryDy=0;startArrow=none;fillColor=#f5f5f5;strokeColor=#666666;" parent="1" source="98" target="85" edge="1">
                    <mxGeometry width="50" height="50" relative="1" as="geometry">
                        <mxPoint x="115" y="642" as="sourcePoint"/>
                        <mxPoint x="315" y="922" as="targetPoint"/>
                    </mxGeometry>
                </mxCell>
                <mxCell id="98" value="" style="ellipse;whiteSpace=wrap;html=1;aspect=fixed;fontSize=18;strokeWidth=2;fillColor=#f5f5f5;fontColor=#333333;strokeColor=#666666;" parent="1" vertex="1">
                    <mxGeometry x="90" y="622" width="50" height="50" as="geometry"/>
                </mxCell>
                <mxCell id="99" value="调用开始" style="text;html=1;align=center;verticalAlign=middle;resizable=0;points=[];autosize=1;strokeColor=#666666;fillColor=#f5f5f5;fontSize=18;fontColor=#333333;" parent="1" vertex="1">
                    <mxGeometry x="140" y="622" width="90" height="30" as="geometry"/>
                </mxCell>
                <mxCell id="100" value="" style="edgeStyle=none;html=1;strokeWidth=2;fontSize=18;fillColor=#f5f5f5;strokeColor=#666666;" parent="1" source="101" target="103" edge="1">
                    <mxGeometry relative="1" as="geometry"/>
                </mxCell>
                <mxCell id="101" value="传入参数合法？" style="rhombus;whiteSpace=wrap;html=1;strokeWidth=2;fontSize=18;fillColor=#f5f5f5;fontColor=#333333;strokeColor=#666666;" parent="1" vertex="1">
                    <mxGeometry x="295" y="682" width="200" height="80" as="geometry"/>
                </mxCell>
                <mxCell id="102" value="" style="edgeStyle=none;html=1;fontSize=18;strokeWidth=2;fillColor=#f5f5f5;strokeColor=#666666;" parent="1" source="103" target="104" edge="1">
                    <mxGeometry relative="1" as="geometry"/>
                </mxCell>
                <mxCell id="103" value="解析成功函数指针置空" style="whiteSpace=wrap;html=1;strokeWidth=2;fontSize=18;fillColor=#f5f5f5;fontColor=#333333;strokeColor=#666666;" parent="1" vertex="1">
                    <mxGeometry x="335" y="802" width="120" height="60" as="geometry"/>
                </mxCell>
                <mxCell id="104" value="释放负载数据区域内存" style="whiteSpace=wrap;html=1;fontSize=18;strokeWidth=2;fillColor=#f5f5f5;fontColor=#333333;strokeColor=#666666;" parent="1" vertex="1">
                    <mxGeometry x="335" y="902" width="120" height="60" as="geometry"/>
                </mxCell>
                <mxCell id="105" value="" style="endArrow=none;html=1;fontSize=18;strokeWidth=2;exitX=0.5;exitY=1;exitDx=0;exitDy=0;entryX=0.5;entryY=0;entryDx=0;entryDy=0;fillColor=#f5f5f5;strokeColor=#666666;" parent="1" source="104" target="106" edge="1">
                    <mxGeometry width="50" height="50" relative="1" as="geometry">
                        <mxPoint x="395" y="1062" as="sourcePoint"/>
                        <mxPoint x="395" y="1132" as="targetPoint"/>
                    </mxGeometry>
                </mxCell>
                <mxCell id="106" value="" style="ellipse;whiteSpace=wrap;html=1;aspect=fixed;fontSize=18;strokeWidth=2;fillColor=#f5f5f5;fontColor=#333333;strokeColor=#666666;" parent="1" vertex="1">
                    <mxGeometry x="370" y="1002" width="50" height="50" as="geometry"/>
                </mxCell>
                <mxCell id="107" value="" style="endArrow=none;html=1;fontSize=18;strokeWidth=2;entryX=1;entryY=0.5;entryDx=0;entryDy=0;exitX=1;exitY=0.5;exitDx=0;exitDy=0;fillColor=#f5f5f5;strokeColor=#666666;" parent="1" source="106" target="101" edge="1">
                    <mxGeometry width="50" height="50" relative="1" as="geometry">
                        <mxPoint x="545" y="972" as="sourcePoint"/>
                        <mxPoint x="595" y="922" as="targetPoint"/>
                        <Array as="points">
                            <mxPoint x="525" y="1027"/>
                            <mxPoint x="525" y="722"/>
                        </Array>
                    </mxGeometry>
                </mxCell>
                <mxCell id="108" value="是" style="text;html=1;align=center;verticalAlign=middle;resizable=0;points=[];autosize=1;strokeColor=#666666;fillColor=#f5f5f5;fontSize=18;fontColor=#333333;" parent="1" vertex="1">
                    <mxGeometry x="410" y="757" width="30" height="30" as="geometry"/>
                </mxCell>
                <mxCell id="109" value="否" style="text;html=1;align=center;verticalAlign=middle;resizable=0;points=[];autosize=1;strokeColor=#666666;fillColor=#f5f5f5;fontSize=18;fontColor=#333333;" parent="1" vertex="1">
                    <mxGeometry x="495" y="682" width="30" height="30" as="geometry"/>
                </mxCell>
                <mxCell id="110" value="调用结束" style="text;html=1;align=center;verticalAlign=middle;resizable=0;points=[];autosize=1;strokeColor=#666666;fillColor=#f5f5f5;fontSize=18;fontColor=#333333;" parent="1" vertex="1">
                    <mxGeometry x="415" y="1042" width="90" height="30" as="geometry"/>
                </mxCell>
                <mxCell id="111" value="" style="endArrow=none;html=1;fontSize=18;strokeWidth=2;entryX=0.5;entryY=0;entryDx=0;entryDy=0;startArrow=none;fillColor=#f5f5f5;strokeColor=#666666;" parent="1" source="112" target="101" edge="1">
                    <mxGeometry width="50" height="50" relative="1" as="geometry">
                        <mxPoint x="395" y="642" as="sourcePoint"/>
                        <mxPoint x="595" y="922" as="targetPoint"/>
                    </mxGeometry>
                </mxCell>
                <mxCell id="112" value="" style="ellipse;whiteSpace=wrap;html=1;aspect=fixed;fontSize=18;strokeWidth=2;fillColor=#f5f5f5;fontColor=#333333;strokeColor=#666666;" parent="1" vertex="1">
                    <mxGeometry x="370" y="622" width="50" height="50" as="geometry"/>
                </mxCell>
                <mxCell id="113" value="调用开始" style="text;html=1;align=center;verticalAlign=middle;resizable=0;points=[];autosize=1;strokeColor=#666666;fillColor=#f5f5f5;fontSize=18;fontColor=#333333;" parent="1" vertex="1">
                    <mxGeometry x="420" y="622" width="90" height="30" as="geometry"/>
                </mxCell>
                <mxCell id="156" value="" style="edgeStyle=none;html=1;fontSize=18;strokeWidth=2;fillColor=#f5f5f5;strokeColor=#666666;" parent="1" source="115" target="155" edge="1">
                    <mxGeometry relative="1" as="geometry"/>
                </mxCell>
                <mxCell id="115" value="传入参数合法？" style="rhombus;whiteSpace=wrap;html=1;strokeWidth=2;fontSize=18;fillColor=#f5f5f5;fontColor=#333333;strokeColor=#666666;" parent="1" vertex="1">
                    <mxGeometry x="585" y="682" width="200" height="80" as="geometry"/>
                </mxCell>
                <mxCell id="116" value="" style="edgeStyle=none;html=1;fontSize=18;strokeWidth=2;fillColor=#f5f5f5;strokeColor=#666666;" parent="1" target="118" edge="1">
                    <mxGeometry relative="1" as="geometry">
                        <mxPoint x="685" y="862" as="sourcePoint"/>
                    </mxGeometry>
                </mxCell>
                <mxCell id="118" value="改变帧结构体成员" style="whiteSpace=wrap;html=1;fontSize=18;strokeWidth=2;fillColor=#f5f5f5;fontColor=#333333;strokeColor=#666666;" parent="1" vertex="1">
                    <mxGeometry x="625" y="922" width="120" height="60" as="geometry"/>
                </mxCell>
                <mxCell id="121" value="" style="endArrow=none;html=1;fontSize=18;strokeWidth=2;entryX=1;entryY=0.5;entryDx=0;entryDy=0;exitX=1;exitY=0.5;exitDx=0;exitDy=0;fillColor=#f5f5f5;strokeColor=#666666;" parent="1" source="120" target="115" edge="1">
                    <mxGeometry width="50" height="50" relative="1" as="geometry">
                        <mxPoint x="835" y="972" as="sourcePoint"/>
                        <mxPoint x="885" y="922" as="targetPoint"/>
                        <Array as="points">
                            <mxPoint x="815" y="1057"/>
                            <mxPoint x="815" y="722"/>
                        </Array>
                    </mxGeometry>
                </mxCell>
                <mxCell id="122" value="是" style="text;html=1;align=center;verticalAlign=middle;resizable=0;points=[];autosize=1;strokeColor=#666666;fillColor=#f5f5f5;fontSize=18;fontColor=#333333;" parent="1" vertex="1">
                    <mxGeometry x="700" y="757" width="30" height="30" as="geometry"/>
                </mxCell>
                <mxCell id="123" value="否" style="text;html=1;align=center;verticalAlign=middle;resizable=0;points=[];autosize=1;strokeColor=#666666;fillColor=#f5f5f5;fontSize=18;fontColor=#333333;" parent="1" vertex="1">
                    <mxGeometry x="785" y="682" width="30" height="30" as="geometry"/>
                </mxCell>
                <mxCell id="124" value="调用结束" style="text;html=1;align=center;verticalAlign=middle;resizable=0;points=[];autosize=1;strokeColor=#666666;fillColor=#f5f5f5;fontSize=18;fontColor=#333333;" parent="1" vertex="1">
                    <mxGeometry x="705" y="1062" width="90" height="30" as="geometry"/>
                </mxCell>
                <mxCell id="125" value="" style="endArrow=none;html=1;fontSize=18;strokeWidth=2;entryX=0.5;entryY=0;entryDx=0;entryDy=0;startArrow=none;fillColor=#f5f5f5;strokeColor=#666666;" parent="1" source="126" target="115" edge="1">
                    <mxGeometry width="50" height="50" relative="1" as="geometry">
                        <mxPoint x="685" y="642" as="sourcePoint"/>
                        <mxPoint x="885" y="922" as="targetPoint"/>
                    </mxGeometry>
                </mxCell>
                <mxCell id="126" value="" style="ellipse;whiteSpace=wrap;html=1;aspect=fixed;fontSize=18;strokeWidth=2;fillColor=#f5f5f5;fontColor=#333333;strokeColor=#666666;" parent="1" vertex="1">
                    <mxGeometry x="660" y="622" width="50" height="50" as="geometry"/>
                </mxCell>
                <mxCell id="127" value="调用开始" style="text;html=1;align=center;verticalAlign=middle;resizable=0;points=[];autosize=1;strokeColor=#666666;fillColor=#f5f5f5;fontSize=18;fontColor=#333333;" parent="1" vertex="1">
                    <mxGeometry x="710" y="622" width="90" height="30" as="geometry"/>
                </mxCell>
                <mxCell id="128" value="init" style="text;html=1;align=center;verticalAlign=middle;resizable=0;points=[];autosize=1;strokeColor=#666666;fillColor=#f5f5f5;fontSize=18;fontColor=#333333;" parent="1" vertex="1">
                    <mxGeometry x="15" y="597" width="40" height="30" as="geometry"/>
                </mxCell>
                <mxCell id="129" value="deinit" style="text;html=1;align=center;verticalAlign=middle;resizable=0;points=[];autosize=1;strokeColor=#666666;fillColor=#f5f5f5;fontSize=18;fontColor=#333333;" parent="1" vertex="1">
                    <mxGeometry x="285" y="597" width="60" height="30" as="geometry"/>
                </mxCell>
                <mxCell id="130" value="hup_pack" style="text;html=1;align=center;verticalAlign=middle;resizable=0;points=[];autosize=1;strokeColor=#666666;fillColor=#f5f5f5;fontSize=18;fontColor=#333333;" parent="1" vertex="1">
                    <mxGeometry x="570" y="607" width="90" height="30" as="geometry"/>
                </mxCell>
                <mxCell id="131" value="" style="edgeStyle=none;html=1;strokeWidth=2;fontSize=18;fillColor=#f5f5f5;strokeColor=#666666;" parent="1" source="132" edge="1">
                    <mxGeometry relative="1" as="geometry">
                        <mxPoint x="1461" y="527.5" as="targetPoint"/>
                    </mxGeometry>
                </mxCell>
                <mxCell id="132" value="传入参数合法？" style="rhombus;whiteSpace=wrap;html=1;strokeWidth=2;fontSize=18;fillColor=#f5f5f5;fontColor=#333333;strokeColor=#666666;" parent="1" vertex="1">
                    <mxGeometry x="1361" y="407.5" width="200" height="80" as="geometry"/>
                </mxCell>
                <mxCell id="134" value="" style="endArrow=none;html=1;fontSize=18;strokeWidth=2;exitX=0.5;exitY=1;exitDx=0;exitDy=0;fillColor=#f5f5f5;strokeColor=#666666;" parent="1" edge="1">
                    <mxGeometry width="50" height="50" relative="1" as="geometry">
                        <mxPoint x="1461" y="787.5" as="sourcePoint"/>
                        <mxPoint x="1461" y="857.5" as="targetPoint"/>
                    </mxGeometry>
                </mxCell>
                <mxCell id="135" value="" style="ellipse;whiteSpace=wrap;html=1;aspect=fixed;fontSize=18;strokeWidth=2;fillColor=#f5f5f5;fontColor=#333333;strokeColor=#666666;" parent="1" vertex="1">
                    <mxGeometry x="1436" y="827.5" width="50" height="50" as="geometry"/>
                </mxCell>
                <mxCell id="136" value="" style="endArrow=none;html=1;fontSize=18;strokeWidth=2;entryX=1;entryY=0.5;entryDx=0;entryDy=0;exitX=1;exitY=0.5;exitDx=0;exitDy=0;fillColor=#f5f5f5;strokeColor=#666666;" parent="1" source="135" target="132" edge="1">
                    <mxGeometry width="50" height="50" relative="1" as="geometry">
                        <mxPoint x="1611" y="697.5" as="sourcePoint"/>
                        <mxPoint x="1661" y="647.5" as="targetPoint"/>
                        <Array as="points">
                            <mxPoint x="1591" y="852.5"/>
                            <mxPoint x="1591" y="447.5"/>
                        </Array>
                    </mxGeometry>
                </mxCell>
                <mxCell id="137" value="是" style="text;html=1;align=center;verticalAlign=middle;resizable=0;points=[];autosize=1;strokeColor=#666666;fillColor=#f5f5f5;fontSize=18;fontColor=#333333;" parent="1" vertex="1">
                    <mxGeometry x="1476" y="482.5" width="30" height="30" as="geometry"/>
                </mxCell>
                <mxCell id="138" value="否" style="text;html=1;align=center;verticalAlign=middle;resizable=0;points=[];autosize=1;strokeColor=#666666;fillColor=#f5f5f5;fontSize=18;fontColor=#333333;" parent="1" vertex="1">
                    <mxGeometry x="1561" y="407.5" width="30" height="30" as="geometry"/>
                </mxCell>
                <mxCell id="139" value="调用结束" style="text;html=1;align=center;verticalAlign=middle;resizable=0;points=[];autosize=1;strokeColor=#666666;fillColor=#f5f5f5;fontSize=18;fontColor=#333333;" parent="1" vertex="1">
                    <mxGeometry x="1491" y="862" width="90" height="30" as="geometry"/>
                </mxCell>
                <mxCell id="140" value="" style="endArrow=none;html=1;fontSize=18;strokeWidth=2;entryX=0.5;entryY=0;entryDx=0;entryDy=0;startArrow=none;fillColor=#f5f5f5;strokeColor=#666666;" parent="1" source="141" target="132" edge="1">
                    <mxGeometry width="50" height="50" relative="1" as="geometry">
                        <mxPoint x="1461" y="367.5" as="sourcePoint"/>
                        <mxPoint x="1661" y="647.5" as="targetPoint"/>
                    </mxGeometry>
                </mxCell>
                <mxCell id="141" value="" style="ellipse;whiteSpace=wrap;html=1;aspect=fixed;fontSize=18;strokeWidth=2;fillColor=#f5f5f5;fontColor=#333333;strokeColor=#666666;" parent="1" vertex="1">
                    <mxGeometry x="1436" y="347.5" width="50" height="50" as="geometry"/>
                </mxCell>
                <mxCell id="142" value="调用开始" style="text;html=1;align=center;verticalAlign=middle;resizable=0;points=[];autosize=1;strokeColor=#666666;fillColor=#f5f5f5;fontSize=18;fontColor=#333333;" parent="1" vertex="1">
                    <mxGeometry x="1496" y="355" width="90" height="30" as="geometry"/>
                </mxCell>
                <mxCell id="143" value="hup_parse" style="text;html=1;align=center;verticalAlign=middle;resizable=0;points=[];autosize=1;strokeColor=#666666;fillColor=#f5f5f5;fontSize=18;fontColor=#333333;" parent="1" vertex="1">
                    <mxGeometry x="834" y="407.5" width="100" height="30" as="geometry"/>
                </mxCell>
                <mxCell id="145" value="" style="endArrow=none;html=1;fontSize=18;strokeWidth=2;entryX=0.5;entryY=1;entryDx=0;entryDy=0;startArrow=none;fillColor=#f5f5f5;strokeColor=#666666;" parent="1" source="120" target="118" edge="1">
                    <mxGeometry width="50" height="50" relative="1" as="geometry">
                        <mxPoint x="685" y="1062" as="sourcePoint"/>
                        <mxPoint x="785" y="842" as="targetPoint"/>
                        <Array as="points"/>
                    </mxGeometry>
                </mxCell>
                <mxCell id="148" value="未解析一个位置？" style="rhombus;whiteSpace=wrap;html=1;strokeWidth=2;fontSize=18;fillColor=#f5f5f5;fontColor=#333333;strokeColor=#666666;" parent="1" vertex="1">
                    <mxGeometry x="1361" y="512.5" width="200" height="80" as="geometry"/>
                </mxCell>
                <mxCell id="151" value="" style="endArrow=none;html=1;fontSize=18;strokeWidth=2;entryX=1;entryY=0.5;entryDx=0;entryDy=0;fillColor=#f5f5f5;strokeColor=#666666;" parent="1" target="148" edge="1">
                    <mxGeometry width="50" height="50" relative="1" as="geometry">
                        <mxPoint x="1461" y="787.5" as="sourcePoint"/>
                        <mxPoint x="1561" y="567.5" as="targetPoint"/>
                        <Array as="points">
                            <mxPoint x="1561" y="787.5"/>
                        </Array>
                    </mxGeometry>
                </mxCell>
                <mxCell id="152" value="否" style="text;html=1;align=center;verticalAlign=middle;resizable=0;points=[];autosize=1;strokeColor=#666666;fillColor=#f5f5f5;fontSize=18;fontColor=#333333;" parent="1" vertex="1">
                    <mxGeometry x="1551" y="517.5" width="30" height="30" as="geometry"/>
                </mxCell>
                <mxCell id="153" value="是" style="text;html=1;align=center;verticalAlign=middle;resizable=0;points=[];autosize=1;strokeColor=#666666;fillColor=#f5f5f5;fontSize=18;fontColor=#333333;" parent="1" vertex="1">
                    <mxGeometry x="1486" y="580" width="30" height="30" as="geometry"/>
                </mxCell>
                <mxCell id="155" value="清空即将存放打包帧空间" style="whiteSpace=wrap;html=1;fontSize=18;strokeWidth=2;fillColor=#f5f5f5;fontColor=#333333;strokeColor=#666666;" parent="1" vertex="1">
                    <mxGeometry x="625" y="797" width="120" height="60" as="geometry"/>
                </mxCell>
                <mxCell id="120" value="" style="ellipse;whiteSpace=wrap;html=1;aspect=fixed;fontSize=18;strokeWidth=2;fillColor=#f5f5f5;fontColor=#333333;strokeColor=#666666;" parent="1" vertex="1">
                    <mxGeometry x="660" y="1032" width="50" height="50" as="geometry"/>
                </mxCell>
                <mxCell id="165" value="复位状态机" style="whiteSpace=wrap;html=1;fontSize=18;strokeWidth=2;fillColor=#f5f5f5;fontColor=#333333;strokeColor=#666666;" parent="1" vertex="1">
                    <mxGeometry x="881" y="680" width="120" height="60" as="geometry"/>
                </mxCell>
                <mxCell id="167" value="&lt;font color=&quot;#000000&quot;&gt;解析hup高位头部？&lt;/font&gt;" style="rhombus;whiteSpace=wrap;html=1;strokeWidth=2;fontSize=18;fillColor=#f5f5f5;fontColor=#333333;strokeColor=#666666;" parent="1" vertex="1">
                    <mxGeometry x="1092" y="457.5" width="200" height="80" as="geometry"/>
                </mxCell>
                <mxCell id="169" value="解析hup低位头部？" style="rhombus;whiteSpace=wrap;html=1;strokeWidth=2;fontSize=18;fillColor=#f5f5f5;fontColor=#333333;strokeColor=#666666;" parent="1" vertex="1">
                    <mxGeometry x="1092" y="580" width="200" height="80" as="geometry"/>
                </mxCell>
                <mxCell id="170" value="解析hup命令？" style="rhombus;whiteSpace=wrap;html=1;strokeWidth=2;fontSize=18;fillColor=#f5f5f5;fontColor=#333333;strokeColor=#666666;" parent="1" vertex="1">
                    <mxGeometry x="1092" y="680" width="200" height="80" as="geometry"/>
                </mxCell>
                <mxCell id="171" value="解析hup负载数据长度？" style="rhombus;whiteSpace=wrap;html=1;strokeWidth=2;fontSize=18;fillColor=#f5f5f5;fontColor=#333333;strokeColor=#666666;" parent="1" vertex="1">
                    <mxGeometry x="1092" y="790" width="200" height="80" as="geometry"/>
                </mxCell>
                <mxCell id="172" value="解析hup负载数据？" style="rhombus;whiteSpace=wrap;html=1;strokeWidth=2;fontSize=18;fillColor=#f5f5f5;fontColor=#333333;strokeColor=#666666;" parent="1" vertex="1">
                    <mxGeometry x="1092" y="892.5" width="200" height="80" as="geometry"/>
                </mxCell>
                <mxCell id="173" value="解析hup校验位？" style="rhombus;whiteSpace=wrap;html=1;strokeWidth=2;fontSize=18;fillColor=#f5f5f5;fontColor=#333333;strokeColor=#666666;" parent="1" vertex="1">
                    <mxGeometry x="1092" y="1005" width="200" height="80" as="geometry"/>
                </mxCell>
                <mxCell id="190" value="" style="endArrow=classic;html=1;fontSize=18;strokeWidth=2;exitX=0.5;exitY=0;exitDx=0;exitDy=0;entryX=0;entryY=0.5;entryDx=0;entryDy=0;fillColor=#f5f5f5;strokeColor=#666666;" parent="1" source="165" target="148" edge="1">
                    <mxGeometry width="50" height="50" relative="1" as="geometry">
                        <mxPoint x="1201" y="665" as="sourcePoint"/>
                        <mxPoint x="1251" y="615" as="targetPoint"/>
                        <Array as="points">
                            <mxPoint x="941" y="345"/>
                            <mxPoint x="1331" y="345"/>
                            <mxPoint x="1331" y="553"/>
                        </Array>
                    </mxGeometry>
                </mxCell>
                <mxCell id="191" value="" style="endArrow=classic;html=1;fontSize=18;strokeWidth=2;entryX=0.5;entryY=0;entryDx=0;entryDy=0;exitX=0.5;exitY=1;exitDx=0;exitDy=0;fillColor=#f5f5f5;strokeColor=#666666;" parent="1" source="148" target="167" edge="1">
                    <mxGeometry width="50" height="50" relative="1" as="geometry">
                        <mxPoint x="1221" y="655" as="sourcePoint"/>
                        <mxPoint x="1251" y="615" as="targetPoint"/>
                        <Array as="points">
                            <mxPoint x="1461" y="615"/>
                            <mxPoint x="1311" y="615"/>
                            <mxPoint x="1311" y="415"/>
                            <mxPoint x="1192" y="415"/>
                        </Array>
                    </mxGeometry>
                </mxCell>
                <mxCell id="192" value="" style="endArrow=none;html=1;fontSize=18;strokeWidth=2;entryX=0;entryY=0.5;entryDx=0;entryDy=0;exitX=1;exitY=0.5;exitDx=0;exitDy=0;fillColor=#f5f5f5;strokeColor=#666666;" parent="1" source="165" target="167" edge="1">
                    <mxGeometry width="50" height="50" relative="1" as="geometry">
                        <mxPoint x="1201" y="665" as="sourcePoint"/>
                        <mxPoint x="1251" y="615" as="targetPoint"/>
                    </mxGeometry>
                </mxCell>
                <mxCell id="195" value="" style="endArrow=none;html=1;fontSize=18;strokeWidth=2;exitX=1;exitY=0.5;exitDx=0;exitDy=0;entryX=0;entryY=0.5;entryDx=0;entryDy=0;fillColor=#f5f5f5;strokeColor=#666666;" parent="1" source="165" target="169" edge="1">
                    <mxGeometry width="50" height="50" relative="1" as="geometry">
                        <mxPoint x="1201" y="665" as="sourcePoint"/>
                        <mxPoint x="1251" y="615" as="targetPoint"/>
                    </mxGeometry>
                </mxCell>
                <mxCell id="196" value="" style="endArrow=none;html=1;fontSize=18;strokeWidth=2;exitX=0;exitY=0.5;exitDx=0;exitDy=0;entryX=1;entryY=0.5;entryDx=0;entryDy=0;fillColor=#f5f5f5;strokeColor=#666666;" parent="1" source="170" target="165" edge="1">
                    <mxGeometry width="50" height="50" relative="1" as="geometry">
                        <mxPoint x="1211" y="675" as="sourcePoint"/>
                        <mxPoint x="1261" y="625" as="targetPoint"/>
                    </mxGeometry>
                </mxCell>
                <mxCell id="198" value="" style="endArrow=none;html=1;fontSize=18;strokeWidth=2;exitX=1;exitY=0.5;exitDx=0;exitDy=0;entryX=0;entryY=0.5;entryDx=0;entryDy=0;fillColor=#f5f5f5;strokeColor=#666666;" parent="1" source="165" target="172" edge="1">
                    <mxGeometry width="50" height="50" relative="1" as="geometry">
                        <mxPoint x="1231" y="695" as="sourcePoint"/>
                        <mxPoint x="1281" y="645" as="targetPoint"/>
                    </mxGeometry>
                </mxCell>
                <mxCell id="199" value="" style="endArrow=none;html=1;fontSize=18;strokeWidth=2;exitX=0;exitY=0.5;exitDx=0;exitDy=0;entryX=1;entryY=0.5;entryDx=0;entryDy=0;fillColor=#f5f5f5;strokeColor=#666666;" parent="1" source="173" target="165" edge="1">
                    <mxGeometry width="50" height="50" relative="1" as="geometry">
                        <mxPoint x="1241" y="705" as="sourcePoint"/>
                        <mxPoint x="1291" y="655" as="targetPoint"/>
                    </mxGeometry>
                </mxCell>
                <mxCell id="200" value="" style="endArrow=none;html=1;fontSize=18;strokeWidth=2;exitX=0.5;exitY=0;exitDx=0;exitDy=0;entryX=0.5;entryY=1;entryDx=0;entryDy=0;fillColor=#f5f5f5;strokeColor=#666666;" parent="1" source="169" target="167" edge="1">
                    <mxGeometry width="50" height="50" relative="1" as="geometry">
                        <mxPoint x="1201" y="665" as="sourcePoint"/>
                        <mxPoint x="1181" y="545" as="targetPoint"/>
                    </mxGeometry>
                </mxCell>
                <mxCell id="201" value="" style="endArrow=none;html=1;fontSize=18;strokeWidth=2;exitX=0.5;exitY=0;exitDx=0;exitDy=0;entryX=0.5;entryY=1;entryDx=0;entryDy=0;fillColor=#f5f5f5;strokeColor=#666666;" parent="1" source="170" target="169" edge="1">
                    <mxGeometry width="50" height="50" relative="1" as="geometry">
                        <mxPoint x="1251" y="715" as="sourcePoint"/>
                        <mxPoint x="1301" y="665" as="targetPoint"/>
                    </mxGeometry>
                </mxCell>
                <mxCell id="202" value="" style="endArrow=none;html=1;fontSize=18;strokeWidth=2;exitX=0.5;exitY=1;exitDx=0;exitDy=0;entryX=0.5;entryY=0;entryDx=0;entryDy=0;fillColor=#f5f5f5;strokeColor=#666666;" parent="1" source="170" target="171" edge="1">
                    <mxGeometry width="50" height="50" relative="1" as="geometry">
                        <mxPoint x="1261" y="725" as="sourcePoint"/>
                        <mxPoint x="1311" y="675" as="targetPoint"/>
                    </mxGeometry>
                </mxCell>
                <mxCell id="203" value="" style="endArrow=none;html=1;fontSize=18;strokeWidth=2;exitX=0.5;exitY=1;exitDx=0;exitDy=0;entryX=0.5;entryY=0;entryDx=0;entryDy=0;fillColor=#f5f5f5;strokeColor=#666666;" parent="1" source="171" target="172" edge="1">
                    <mxGeometry width="50" height="50" relative="1" as="geometry">
                        <mxPoint x="1271" y="735" as="sourcePoint"/>
                        <mxPoint x="1321" y="685" as="targetPoint"/>
                    </mxGeometry>
                </mxCell>
                <mxCell id="204" value="" style="endArrow=none;html=1;fontSize=18;strokeWidth=2;exitX=0.5;exitY=1;exitDx=0;exitDy=0;entryX=0.5;entryY=0;entryDx=0;entryDy=0;fillColor=#f5f5f5;strokeColor=#666666;" parent="1" source="172" target="173" edge="1">
                    <mxGeometry width="50" height="50" relative="1" as="geometry">
                        <mxPoint x="1281" y="745" as="sourcePoint"/>
                        <mxPoint x="1331" y="695" as="targetPoint"/>
                    </mxGeometry>
                </mxCell>
                <mxCell id="205" value="解析出错" style="text;html=1;align=center;verticalAlign=middle;resizable=0;points=[];autosize=1;strokeColor=#666666;fillColor=#f5f5f5;fontSize=18;fontColor=#333333;" parent="1" vertex="1">
                    <mxGeometry x="996" y="610" width="90" height="30" as="geometry"/>
                </mxCell>
                <mxCell id="206" value="" style="endArrow=classic;html=1;fontSize=18;strokeWidth=2;exitX=0.5;exitY=1;exitDx=0;exitDy=0;entryX=0.5;entryY=1;entryDx=0;entryDy=0;startArrow=none;fillColor=#f5f5f5;strokeColor=#666666;" parent="1" source="211" target="165" edge="1">
                    <mxGeometry width="50" height="50" relative="1" as="geometry">
                        <mxPoint x="1201" y="815" as="sourcePoint"/>
                        <mxPoint x="1251" y="765" as="targetPoint"/>
                        <Array as="points"/>
                    </mxGeometry>
                </mxCell>
                <mxCell id="207" value="解析出错" style="text;html=1;align=center;verticalAlign=middle;resizable=0;points=[];autosize=1;strokeColor=#666666;fillColor=#f5f5f5;fontSize=18;fontColor=#333333;" parent="1" vertex="1">
                    <mxGeometry x="1002" y="760" width="90" height="30" as="geometry"/>
                </mxCell>
                <mxCell id="208" value="" style="endArrow=none;html=1;fontSize=18;strokeWidth=2;exitX=0;exitY=0.5;exitDx=0;exitDy=0;entryX=1;entryY=0.5;entryDx=0;entryDy=0;fillColor=#f5f5f5;strokeColor=#666666;" parent="1" source="171" target="165" edge="1">
                    <mxGeometry width="50" height="50" relative="1" as="geometry">
                        <mxPoint x="1090" y="830" as="sourcePoint"/>
                        <mxPoint x="1001" y="710" as="targetPoint"/>
                    </mxGeometry>
                </mxCell>
                <mxCell id="209" value="解析出错" style="text;html=1;align=center;verticalAlign=middle;resizable=0;points=[];autosize=1;strokeColor=#666666;fillColor=#f5f5f5;fontSize=18;fontColor=#333333;" parent="1" vertex="1">
                    <mxGeometry x="1011" y="690" width="90" height="30" as="geometry"/>
                </mxCell>
                <mxCell id="210" value="解析成功" style="text;html=1;align=center;verticalAlign=middle;resizable=0;points=[];autosize=1;strokeColor=#666666;fillColor=#f5f5f5;fontSize=18;fontColor=#333333;" parent="1" vertex="1">
                    <mxGeometry x="1056" y="1070" width="90" height="30" as="geometry"/>
                </mxCell>
                <mxCell id="211" value="调用解析成功函数" style="whiteSpace=wrap;html=1;fontSize=18;strokeWidth=2;fillColor=#f5f5f5;fontColor=#333333;strokeColor=#666666;" parent="1" vertex="1">
                    <mxGeometry x="882" y="902.5" width="120" height="60" as="geometry"/>
                </mxCell>
                <mxCell id="212" value="" style="endArrow=none;html=1;fontSize=18;strokeWidth=2;exitX=0.5;exitY=1;exitDx=0;exitDy=0;entryX=0.5;entryY=1;entryDx=0;entryDy=0;fillColor=#f5f5f5;strokeColor=#666666;" parent="1" source="173" target="211" edge="1">
                    <mxGeometry width="50" height="50" relative="1" as="geometry">
                        <mxPoint x="1192" y="1162" as="sourcePoint"/>
                        <mxPoint x="941" y="817" as="targetPoint"/>
                        <Array as="points">
                            <mxPoint x="1192" y="1105"/>
                            <mxPoint x="942" y="1105"/>
                        </Array>
                    </mxGeometry>
                </mxCell>
                <mxCell id="281" value="" style="edgeStyle=none;html=1;strokeWidth=2;fontSize=18;fillColor=#f5f5f5;strokeColor=#666666;" parent="1" source="282" target="284" edge="1">
                    <mxGeometry relative="1" as="geometry"/>
                </mxCell>
                <mxCell id="282" value="传入参数合法？" style="rhombus;whiteSpace=wrap;html=1;strokeWidth=2;fontSize=18;fillColor=#f5f5f5;fontColor=#333333;strokeColor=#666666;" parent="1" vertex="1">
                    <mxGeometry x="-1078" y="94" width="200" height="80" as="geometry"/>
                </mxCell>
                <mxCell id="283" value="" style="edgeStyle=none;html=1;fontSize=18;strokeWidth=2;fillColor=#f5f5f5;strokeColor=#666666;" parent="1" source="284" target="286" edge="1">
                    <mxGeometry relative="1" as="geometry"/>
                </mxCell>
                <mxCell id="284" value="创建生成消息队列ID的key" style="whiteSpace=wrap;html=1;strokeWidth=2;fontSize=18;fillColor=#f5f5f5;fontColor=#333333;strokeColor=#666666;" parent="1" vertex="1">
                    <mxGeometry x="-1038" y="214" width="120" height="60" as="geometry"/>
                </mxCell>
                <mxCell id="285" value="" style="edgeStyle=none;html=1;fontSize=18;strokeWidth=2;entryX=0.5;entryY=0;entryDx=0;entryDy=0;fillColor=#f5f5f5;strokeColor=#666666;" parent="1" source="286" target="289" edge="1">
                    <mxGeometry relative="1" as="geometry">
                        <mxPoint x="-978" y="414" as="targetPoint"/>
                    </mxGeometry>
                </mxCell>
                <mxCell id="286" value="获得消息队列ID" style="whiteSpace=wrap;html=1;fontSize=18;strokeWidth=2;fillColor=#f5f5f5;fontColor=#333333;strokeColor=#666666;" parent="1" vertex="1">
                    <mxGeometry x="-1038" y="314" width="120" height="60" as="geometry"/>
                </mxCell>
                <mxCell id="289" value="" style="ellipse;whiteSpace=wrap;html=1;aspect=fixed;fontSize=18;strokeWidth=2;fillColor=#f5f5f5;fontColor=#333333;strokeColor=#666666;" parent="1" vertex="1">
                    <mxGeometry x="-1003" y="404" width="50" height="50" as="geometry"/>
                </mxCell>
                <mxCell id="290" value="" style="endArrow=none;html=1;fontSize=18;strokeWidth=2;entryX=1;entryY=0.5;entryDx=0;entryDy=0;fillColor=#f5f5f5;strokeColor=#666666;" parent="1" target="282" edge="1">
                    <mxGeometry width="50" height="50" relative="1" as="geometry">
                        <mxPoint x="-953" y="429" as="sourcePoint"/>
                        <mxPoint x="-778" y="334" as="targetPoint"/>
                        <Array as="points">
                            <mxPoint x="-848" y="429"/>
                            <mxPoint x="-848" y="134"/>
                        </Array>
                    </mxGeometry>
                </mxCell>
                <mxCell id="291" value="是" style="text;html=1;align=center;verticalAlign=middle;resizable=0;points=[];autosize=1;strokeColor=#666666;fillColor=#f5f5f5;fontSize=18;fontColor=#333333;" parent="1" vertex="1">
                    <mxGeometry x="-963" y="169" width="30" height="30" as="geometry"/>
                </mxCell>
                <mxCell id="292" value="否" style="text;html=1;align=center;verticalAlign=middle;resizable=0;points=[];autosize=1;strokeColor=#666666;fillColor=#f5f5f5;fontSize=18;fontColor=#333333;" parent="1" vertex="1">
                    <mxGeometry x="-878" y="94" width="30" height="30" as="geometry"/>
                </mxCell>
                <mxCell id="293" value="调用结束" style="text;html=1;align=center;verticalAlign=middle;resizable=0;points=[];autosize=1;strokeColor=#666666;fillColor=#f5f5f5;fontSize=18;fontColor=#333333;" parent="1" vertex="1">
                    <mxGeometry x="-950" y="441" width="90" height="30" as="geometry"/>
                </mxCell>
                <mxCell id="294" value="" style="endArrow=none;html=1;fontSize=18;strokeWidth=2;entryX=0.5;entryY=0;entryDx=0;entryDy=0;startArrow=none;fillColor=#f5f5f5;strokeColor=#666666;" parent="1" source="295" target="282" edge="1">
                    <mxGeometry width="50" height="50" relative="1" as="geometry">
                        <mxPoint x="-978" y="54" as="sourcePoint"/>
                        <mxPoint x="-778" y="334" as="targetPoint"/>
                    </mxGeometry>
                </mxCell>
                <mxCell id="295" value="" style="ellipse;whiteSpace=wrap;html=1;aspect=fixed;fontSize=18;strokeWidth=2;fillColor=#f5f5f5;fontColor=#333333;strokeColor=#666666;" parent="1" vertex="1">
                    <mxGeometry x="-1003" y="34" width="50" height="50" as="geometry"/>
                </mxCell>
                <mxCell id="296" value="调用开始" style="text;html=1;align=center;verticalAlign=middle;resizable=0;points=[];autosize=1;strokeColor=#666666;fillColor=#f5f5f5;fontSize=18;fontColor=#333333;" parent="1" vertex="1">
                    <mxGeometry x="-953" y="34" width="90" height="30" as="geometry"/>
                </mxCell>
                <mxCell id="297" value="" style="edgeStyle=none;html=1;strokeWidth=2;fontSize=18;fillColor=#f5f5f5;strokeColor=#666666;" parent="1" source="298" target="300" edge="1">
                    <mxGeometry relative="1" as="geometry"/>
                </mxCell>
                <mxCell id="298" value="传入参数合法？" style="rhombus;whiteSpace=wrap;html=1;strokeWidth=2;fontSize=18;fillColor=#f5f5f5;fontColor=#333333;strokeColor=#666666;" parent="1" vertex="1">
                    <mxGeometry x="-798" y="94" width="200" height="80" as="geometry"/>
                </mxCell>
                <mxCell id="299" value="" style="edgeStyle=none;html=1;fontSize=18;strokeWidth=2;entryX=0.5;entryY=0;entryDx=0;entryDy=0;fillColor=#f5f5f5;strokeColor=#666666;" parent="1" source="300" target="303" edge="1">
                    <mxGeometry relative="1" as="geometry">
                        <mxPoint x="-697.4545454545455" y="314" as="targetPoint"/>
                    </mxGeometry>
                </mxCell>
                <mxCell id="300" value="删除消息队列ID" style="whiteSpace=wrap;html=1;strokeWidth=2;fontSize=18;fillColor=#f5f5f5;fontColor=#333333;strokeColor=#666666;" parent="1" vertex="1">
                    <mxGeometry x="-756" y="204" width="120" height="60" as="geometry"/>
                </mxCell>
                <mxCell id="303" value="" style="ellipse;whiteSpace=wrap;html=1;aspect=fixed;fontSize=18;strokeWidth=2;fillColor=#f5f5f5;fontColor=#333333;strokeColor=#666666;" parent="1" vertex="1">
                    <mxGeometry x="-721" y="314" width="50" height="50" as="geometry"/>
                </mxCell>
                <mxCell id="304" value="" style="endArrow=none;html=1;fontSize=18;strokeWidth=2;entryX=1;entryY=0.5;entryDx=0;entryDy=0;exitX=1;exitY=0.5;exitDx=0;exitDy=0;fillColor=#f5f5f5;strokeColor=#666666;" parent="1" source="303" target="298" edge="1">
                    <mxGeometry width="50" height="50" relative="1" as="geometry">
                        <mxPoint x="-548" y="384" as="sourcePoint"/>
                        <mxPoint x="-498" y="334" as="targetPoint"/>
                        <Array as="points">
                            <mxPoint x="-568" y="339"/>
                            <mxPoint x="-568" y="134"/>
                        </Array>
                    </mxGeometry>
                </mxCell>
                <mxCell id="305" value="是" style="text;html=1;align=center;verticalAlign=middle;resizable=0;points=[];autosize=1;strokeColor=#666666;fillColor=#f5f5f5;fontSize=18;fontColor=#333333;" parent="1" vertex="1">
                    <mxGeometry x="-683" y="169" width="30" height="30" as="geometry"/>
                </mxCell>
                <mxCell id="306" value="否" style="text;html=1;align=center;verticalAlign=middle;resizable=0;points=[];autosize=1;strokeColor=#666666;fillColor=#f5f5f5;fontSize=18;fontColor=#333333;" parent="1" vertex="1">
                    <mxGeometry x="-598" y="94" width="30" height="30" as="geometry"/>
                </mxCell>
                <mxCell id="307" value="调用结束" style="text;html=1;align=center;verticalAlign=middle;resizable=0;points=[];autosize=1;strokeColor=#666666;fillColor=#f5f5f5;fontSize=18;fontColor=#333333;" parent="1" vertex="1">
                    <mxGeometry x="-668" y="349" width="90" height="30" as="geometry"/>
                </mxCell>
                <mxCell id="308" value="" style="endArrow=none;html=1;fontSize=18;strokeWidth=2;entryX=0.5;entryY=0;entryDx=0;entryDy=0;startArrow=none;fillColor=#f5f5f5;strokeColor=#666666;" parent="1" source="309" target="298" edge="1">
                    <mxGeometry width="50" height="50" relative="1" as="geometry">
                        <mxPoint x="-698" y="54" as="sourcePoint"/>
                        <mxPoint x="-498" y="334" as="targetPoint"/>
                    </mxGeometry>
                </mxCell>
                <mxCell id="309" value="" style="ellipse;whiteSpace=wrap;html=1;aspect=fixed;fontSize=18;strokeWidth=2;fillColor=#f5f5f5;fontColor=#333333;strokeColor=#666666;" parent="1" vertex="1">
                    <mxGeometry x="-723" y="34" width="50" height="50" as="geometry"/>
                </mxCell>
                <mxCell id="310" value="调用开始" style="text;html=1;align=center;verticalAlign=middle;resizable=0;points=[];autosize=1;strokeColor=#666666;fillColor=#f5f5f5;fontSize=18;fontColor=#333333;" parent="1" vertex="1">
                    <mxGeometry x="-673" y="34" width="90" height="30" as="geometry"/>
                </mxCell>
                <mxCell id="311" value="" style="edgeStyle=none;html=1;strokeWidth=2;fontSize=18;fillColor=#f5f5f5;strokeColor=#666666;" parent="1" source="312" edge="1">
                    <mxGeometry relative="1" as="geometry">
                        <mxPoint x="-408" y="214" as="targetPoint"/>
                    </mxGeometry>
                </mxCell>
                <mxCell id="312" value="传入参数合法？" style="rhombus;whiteSpace=wrap;html=1;strokeWidth=2;fontSize=18;fillColor=#f5f5f5;fontColor=#333333;strokeColor=#666666;" parent="1" vertex="1">
                    <mxGeometry x="-508" y="94" width="200" height="80" as="geometry"/>
                </mxCell>
                <mxCell id="313" value="" style="edgeStyle=none;html=1;fontSize=18;strokeWidth=2;fillColor=#f5f5f5;strokeColor=#666666;" parent="1" target="315" edge="1">
                    <mxGeometry relative="1" as="geometry">
                        <mxPoint x="-408" y="274" as="sourcePoint"/>
                    </mxGeometry>
                </mxCell>
                <mxCell id="315" value="发送结构体到消息队列" style="whiteSpace=wrap;html=1;fontSize=18;strokeWidth=2;fillColor=#f5f5f5;fontColor=#333333;strokeColor=#666666;" parent="1" vertex="1">
                    <mxGeometry x="-468" y="314" width="120" height="60" as="geometry"/>
                </mxCell>
                <mxCell id="316" value="" style="endArrow=none;html=1;fontSize=18;strokeWidth=2;exitX=0.5;exitY=1;exitDx=0;exitDy=0;fillColor=#f5f5f5;strokeColor=#666666;" parent="1" edge="1">
                    <mxGeometry width="50" height="50" relative="1" as="geometry">
                        <mxPoint x="-408" y="474" as="sourcePoint"/>
                        <mxPoint x="-408" y="544" as="targetPoint"/>
                    </mxGeometry>
                </mxCell>
                <mxCell id="317" value="" style="ellipse;whiteSpace=wrap;html=1;aspect=fixed;fontSize=18;strokeWidth=2;fillColor=#f5f5f5;fontColor=#333333;strokeColor=#666666;" parent="1" vertex="1">
                    <mxGeometry x="-433" y="514" width="50" height="50" as="geometry"/>
                </mxCell>
                <mxCell id="318" value="" style="endArrow=none;html=1;fontSize=18;strokeWidth=2;entryX=1;entryY=0.5;entryDx=0;entryDy=0;exitX=1;exitY=0.5;exitDx=0;exitDy=0;fillColor=#f5f5f5;strokeColor=#666666;" parent="1" source="317" target="312" edge="1">
                    <mxGeometry width="50" height="50" relative="1" as="geometry">
                        <mxPoint x="-258" y="384" as="sourcePoint"/>
                        <mxPoint x="-208" y="334" as="targetPoint"/>
                        <Array as="points">
                            <mxPoint x="-278" y="539"/>
                            <mxPoint x="-278" y="134"/>
                        </Array>
                    </mxGeometry>
                </mxCell>
                <mxCell id="319" value="是" style="text;html=1;align=center;verticalAlign=middle;resizable=0;points=[];autosize=1;strokeColor=#666666;fillColor=#f5f5f5;fontSize=18;fontColor=#333333;" parent="1" vertex="1">
                    <mxGeometry x="-393" y="169" width="30" height="30" as="geometry"/>
                </mxCell>
                <mxCell id="320" value="否" style="text;html=1;align=center;verticalAlign=middle;resizable=0;points=[];autosize=1;strokeColor=#666666;fillColor=#f5f5f5;fontSize=18;fontColor=#333333;" parent="1" vertex="1">
                    <mxGeometry x="-308" y="94" width="30" height="30" as="geometry"/>
                </mxCell>
                <mxCell id="321" value="调用结束" style="text;html=1;align=center;verticalAlign=middle;resizable=0;points=[];autosize=1;strokeColor=#666666;fillColor=#f5f5f5;fontSize=18;fontColor=#333333;" parent="1" vertex="1">
                    <mxGeometry x="-368" y="550" width="90" height="30" as="geometry"/>
                </mxCell>
                <mxCell id="322" value="" style="endArrow=none;html=1;fontSize=18;strokeWidth=2;entryX=0.5;entryY=0;entryDx=0;entryDy=0;startArrow=none;fillColor=#f5f5f5;strokeColor=#666666;" parent="1" source="323" target="312" edge="1">
                    <mxGeometry width="50" height="50" relative="1" as="geometry">
                        <mxPoint x="-408" y="54" as="sourcePoint"/>
                        <mxPoint x="-208" y="334" as="targetPoint"/>
                    </mxGeometry>
                </mxCell>
                <mxCell id="323" value="" style="ellipse;whiteSpace=wrap;html=1;aspect=fixed;fontSize=18;strokeWidth=2;fillColor=#f5f5f5;fontColor=#333333;strokeColor=#666666;" parent="1" vertex="1">
                    <mxGeometry x="-433" y="34" width="50" height="50" as="geometry"/>
                </mxCell>
                <mxCell id="324" value="调用开始" style="text;html=1;align=center;verticalAlign=middle;resizable=0;points=[];autosize=1;strokeColor=#666666;fillColor=#f5f5f5;fontSize=18;fontColor=#333333;" parent="1" vertex="1">
                    <mxGeometry x="-383" y="34" width="90" height="30" as="geometry"/>
                </mxCell>
                <mxCell id="325" value="init" style="text;html=1;align=center;verticalAlign=middle;resizable=0;points=[];autosize=1;strokeColor=#666666;fillColor=#f5f5f5;fontSize=18;fontColor=#333333;" parent="1" vertex="1">
                    <mxGeometry x="-1078" y="9" width="40" height="30" as="geometry"/>
                </mxCell>
                <mxCell id="326" value="deinit" style="text;html=1;align=center;verticalAlign=middle;resizable=0;points=[];autosize=1;strokeColor=#666666;fillColor=#f5f5f5;fontSize=18;fontColor=#333333;" parent="1" vertex="1">
                    <mxGeometry x="-808" y="9" width="60" height="30" as="geometry"/>
                </mxCell>
                <mxCell id="327" value="msg_send" style="text;html=1;align=center;verticalAlign=middle;resizable=0;points=[];autosize=1;strokeColor=#666666;fillColor=#f5f5f5;fontSize=18;fontColor=#333333;" parent="1" vertex="1">
                    <mxGeometry x="-504" y="11" width="93" height="26" as="geometry"/>
                </mxCell>
                <mxCell id="328" value="" style="edgeStyle=none;html=1;strokeWidth=2;fontSize=18;fillColor=#f5f5f5;strokeColor=#666666;" parent="1" source="329" edge="1">
                    <mxGeometry relative="1" as="geometry">
                        <mxPoint x="-138" y="214" as="targetPoint"/>
                    </mxGeometry>
                </mxCell>
                <mxCell id="329" value="传入参数合法？" style="rhombus;whiteSpace=wrap;html=1;strokeWidth=2;fontSize=18;fillColor=#f5f5f5;fontColor=#333333;strokeColor=#666666;" parent="1" vertex="1">
                    <mxGeometry x="-238" y="94" width="200" height="80" as="geometry"/>
                </mxCell>
                <mxCell id="330" value="" style="edgeStyle=none;html=1;fontSize=18;strokeWidth=2;startArrow=none;fillColor=#f5f5f5;strokeColor=#666666;" parent="1" source="332" edge="1">
                    <mxGeometry relative="1" as="geometry">
                        <mxPoint x="-138" y="274" as="sourcePoint"/>
                        <mxPoint x="-138" y="377" as="targetPoint"/>
                    </mxGeometry>
                </mxCell>
                <mxCell id="333" value="" style="endArrow=none;html=1;fontSize=18;strokeWidth=2;entryX=1;entryY=0.5;entryDx=0;entryDy=0;exitX=1;exitY=0.5;exitDx=0;exitDy=0;fillColor=#f5f5f5;strokeColor=#666666;" parent="1" source="332" target="329" edge="1">
                    <mxGeometry width="50" height="50" relative="1" as="geometry">
                        <mxPoint x="12" y="384" as="sourcePoint"/>
                        <mxPoint x="62" y="334" as="targetPoint"/>
                        <Array as="points">
                            <mxPoint x="-8" y="404"/>
                            <mxPoint x="-8" y="134"/>
                        </Array>
                    </mxGeometry>
                </mxCell>
                <mxCell id="334" value="是" style="text;html=1;align=center;verticalAlign=middle;resizable=0;points=[];autosize=1;strokeColor=#666666;fillColor=#f5f5f5;fontSize=18;fontColor=#333333;" parent="1" vertex="1">
                    <mxGeometry x="-123" y="169" width="30" height="30" as="geometry"/>
                </mxCell>
                <mxCell id="335" value="否" style="text;html=1;align=center;verticalAlign=middle;resizable=0;points=[];autosize=1;strokeColor=#666666;fillColor=#f5f5f5;fontSize=18;fontColor=#333333;" parent="1" vertex="1">
                    <mxGeometry x="-38" y="94" width="30" height="30" as="geometry"/>
                </mxCell>
                <mxCell id="336" value="调用结束" style="text;html=1;align=center;verticalAlign=middle;resizable=0;points=[];autosize=1;strokeColor=#666666;fillColor=#f5f5f5;fontSize=18;fontColor=#333333;" parent="1" vertex="1">
                    <mxGeometry x="-113" y="420" width="90" height="30" as="geometry"/>
                </mxCell>
                <mxCell id="337" value="" style="endArrow=none;html=1;fontSize=18;strokeWidth=2;entryX=0.5;entryY=0;entryDx=0;entryDy=0;startArrow=none;fillColor=#f5f5f5;strokeColor=#666666;" parent="1" source="338" target="329" edge="1">
                    <mxGeometry width="50" height="50" relative="1" as="geometry">
                        <mxPoint x="-138" y="54" as="sourcePoint"/>
                        <mxPoint x="62" y="334" as="targetPoint"/>
                    </mxGeometry>
                </mxCell>
                <mxCell id="338" value="" style="ellipse;whiteSpace=wrap;html=1;aspect=fixed;fontSize=18;strokeWidth=2;fillColor=#f5f5f5;fontColor=#333333;strokeColor=#666666;" parent="1" vertex="1">
                    <mxGeometry x="-163" y="34" width="50" height="50" as="geometry"/>
                </mxCell>
                <mxCell id="339" value="调用开始" style="text;html=1;align=center;verticalAlign=middle;resizable=0;points=[];autosize=1;strokeColor=#666666;fillColor=#f5f5f5;fontSize=18;fontColor=#333333;" parent="1" vertex="1">
                    <mxGeometry x="-113" y="34" width="90" height="30" as="geometry"/>
                </mxCell>
                <mxCell id="340" value="msg_recive" style="text;html=1;align=center;verticalAlign=middle;resizable=0;points=[];autosize=1;strokeColor=#666666;fillColor=#f5f5f5;fontSize=18;fontColor=#333333;" parent="1" vertex="1">
                    <mxGeometry x="-269" y="21" width="102" height="26" as="geometry"/>
                </mxCell>
                <mxCell id="342" value="" style="endArrow=none;html=1;fontSize=18;strokeWidth=2;entryX=0.5;entryY=1;entryDx=0;entryDy=0;fillColor=#f5f5f5;strokeColor=#666666;" parent="1" target="315" edge="1">
                    <mxGeometry width="50" height="50" relative="1" as="geometry">
                        <mxPoint x="-408" y="474" as="sourcePoint"/>
                        <mxPoint x="-308" y="254" as="targetPoint"/>
                        <Array as="points"/>
                    </mxGeometry>
                </mxCell>
                <mxCell id="347" value="消费消息队列中数据，放入传出参数结构体中" style="whiteSpace=wrap;html=1;fontSize=18;strokeWidth=2;fillColor=#f5f5f5;fontColor=#333333;strokeColor=#666666;" parent="1" vertex="1">
                    <mxGeometry x="-198" y="217" width="127" height="92" as="geometry"/>
                </mxCell>
                <mxCell id="351" value="将数据和命令赋值给结构体" style="whiteSpace=wrap;html=1;fontSize=18;strokeWidth=2;fillColor=#f5f5f5;fontColor=#333333;strokeColor=#666666;" parent="1" vertex="1">
                    <mxGeometry x="-468" y="214" width="120" height="60" as="geometry"/>
                </mxCell>
                <mxCell id="332" value="" style="ellipse;whiteSpace=wrap;html=1;aspect=fixed;fontSize=18;strokeWidth=2;fillColor=#f5f5f5;fontColor=#333333;strokeColor=#666666;" parent="1" vertex="1">
                    <mxGeometry x="-163" y="379" width="50" height="50" as="geometry"/>
                </mxCell>
                <mxCell id="352" value="" style="edgeStyle=none;html=1;fontSize=18;strokeWidth=2;endArrow=none;entryX=0.5;entryY=0;entryDx=0;entryDy=0;fillColor=#f5f5f5;strokeColor=#666666;" parent="1" target="332" edge="1">
                    <mxGeometry relative="1" as="geometry">
                        <mxPoint x="-138" y="309" as="sourcePoint"/>
                        <mxPoint x="-138" y="352" as="targetPoint"/>
                    </mxGeometry>
                </mxCell>
                <mxCell id="353" value="" style="edgeStyle=none;html=1;strokeWidth=2;fontSize=18;fillColor=#f5f5f5;strokeColor=#666666;" parent="1" source="354" target="356" edge="1">
                    <mxGeometry relative="1" as="geometry"/>
                </mxCell>
                <mxCell id="354" value="传入参数合法？" style="rhombus;whiteSpace=wrap;html=1;strokeWidth=2;fontSize=18;fillColor=#f5f5f5;fontColor=#333333;strokeColor=#666666;" parent="1" vertex="1">
                    <mxGeometry x="8" y="1276" width="200" height="80" as="geometry"/>
                </mxCell>
                <mxCell id="355" value="" style="edgeStyle=none;html=1;fontSize=18;strokeWidth=2;fillColor=#f5f5f5;strokeColor=#666666;" parent="1" source="356" target="358" edge="1">
                    <mxGeometry relative="1" as="geometry"/>
                </mxCell>
                <mxCell id="356" value="复位hup解析状态机" style="whiteSpace=wrap;html=1;strokeWidth=2;fontSize=18;fillColor=#f5f5f5;fontColor=#333333;strokeColor=#666666;" parent="1" vertex="1">
                    <mxGeometry x="48" y="1396" width="120" height="60" as="geometry"/>
                </mxCell>
                <mxCell id="357" value="" style="edgeStyle=none;html=1;fontSize=18;strokeWidth=2;fillColor=#f5f5f5;strokeColor=#666666;" parent="1" source="358" target="359" edge="1">
                    <mxGeometry relative="1" as="geometry"/>
                </mxCell>
                <mxCell id="358" value="设定解析成功的处理函数" style="whiteSpace=wrap;html=1;fontSize=18;strokeWidth=2;fillColor=#f5f5f5;fontColor=#333333;strokeColor=#666666;" parent="1" vertex="1">
                    <mxGeometry x="48" y="1496" width="120" height="60" as="geometry"/>
                </mxCell>
                <mxCell id="359" value="动态分配内存负载数据区域" style="whiteSpace=wrap;html=1;fontSize=18;strokeWidth=2;fillColor=#f5f5f5;fontColor=#333333;strokeColor=#666666;" parent="1" vertex="1">
                    <mxGeometry x="48" y="1596" width="120" height="60" as="geometry"/>
                </mxCell>
                <mxCell id="360" value="" style="endArrow=none;html=1;fontSize=18;strokeWidth=2;exitX=0.5;exitY=1;exitDx=0;exitDy=0;fillColor=#f5f5f5;strokeColor=#666666;" parent="1" source="359" edge="1">
                    <mxGeometry width="50" height="50" relative="1" as="geometry">
                        <mxPoint x="258" y="1566" as="sourcePoint"/>
                        <mxPoint x="108" y="1726" as="targetPoint"/>
                    </mxGeometry>
                </mxCell>
                <mxCell id="361" value="" style="ellipse;whiteSpace=wrap;html=1;aspect=fixed;fontSize=18;strokeWidth=2;fillColor=#f5f5f5;fontColor=#333333;strokeColor=#666666;" parent="1" vertex="1">
                    <mxGeometry x="83" y="1696" width="50" height="50" as="geometry"/>
                </mxCell>
                <mxCell id="362" value="" style="endArrow=none;html=1;fontSize=18;strokeWidth=2;entryX=1;entryY=0.5;entryDx=0;entryDy=0;exitX=1;exitY=0.5;exitDx=0;exitDy=0;fillColor=#f5f5f5;strokeColor=#666666;" parent="1" source="361" target="354" edge="1">
                    <mxGeometry width="50" height="50" relative="1" as="geometry">
                        <mxPoint x="258" y="1566" as="sourcePoint"/>
                        <mxPoint x="308" y="1516" as="targetPoint"/>
                        <Array as="points">
                            <mxPoint x="238" y="1721"/>
                            <mxPoint x="238" y="1316"/>
                        </Array>
                    </mxGeometry>
                </mxCell>
                <mxCell id="363" value="是" style="text;html=1;align=center;verticalAlign=middle;resizable=0;points=[];autosize=1;strokeColor=#666666;fillColor=#f5f5f5;fontSize=18;fontColor=#333333;" parent="1" vertex="1">
                    <mxGeometry x="123" y="1351" width="30" height="30" as="geometry"/>
                </mxCell>
                <mxCell id="364" value="否" style="text;html=1;align=center;verticalAlign=middle;resizable=0;points=[];autosize=1;strokeColor=#666666;fillColor=#f5f5f5;fontSize=18;fontColor=#333333;" parent="1" vertex="1">
                    <mxGeometry x="208" y="1276" width="30" height="30" as="geometry"/>
                </mxCell>
                <mxCell id="365" value="调用结束" style="text;html=1;align=center;verticalAlign=middle;resizable=0;points=[];autosize=1;strokeColor=#666666;fillColor=#f5f5f5;fontSize=18;fontColor=#333333;" parent="1" vertex="1">
                    <mxGeometry x="144" y="1727" width="90" height="30" as="geometry"/>
                </mxCell>
                <mxCell id="366" value="" style="endArrow=none;html=1;fontSize=18;strokeWidth=2;entryX=0.5;entryY=0;entryDx=0;entryDy=0;startArrow=none;fillColor=#f5f5f5;strokeColor=#666666;" parent="1" source="367" target="354" edge="1">
                    <mxGeometry width="50" height="50" relative="1" as="geometry">
                        <mxPoint x="108" y="1236" as="sourcePoint"/>
                        <mxPoint x="308" y="1516" as="targetPoint"/>
                    </mxGeometry>
                </mxCell>
                <mxCell id="367" value="" style="ellipse;whiteSpace=wrap;html=1;aspect=fixed;fontSize=18;strokeWidth=2;fillColor=#f5f5f5;fontColor=#333333;strokeColor=#666666;" parent="1" vertex="1">
                    <mxGeometry x="83" y="1216" width="50" height="50" as="geometry"/>
                </mxCell>
                <mxCell id="368" value="调用开始" style="text;html=1;align=center;verticalAlign=middle;resizable=0;points=[];autosize=1;strokeColor=#666666;fillColor=#f5f5f5;fontSize=18;fontColor=#333333;" parent="1" vertex="1">
                    <mxGeometry x="133" y="1216" width="90" height="30" as="geometry"/>
                </mxCell>
                <mxCell id="369" value="" style="edgeStyle=none;html=1;strokeWidth=2;fontSize=18;fillColor=#f5f5f5;strokeColor=#666666;" parent="1" source="370" target="372" edge="1">
                    <mxGeometry relative="1" as="geometry"/>
                </mxCell>
                <mxCell id="370" value="传入参数合法？" style="rhombus;whiteSpace=wrap;html=1;strokeWidth=2;fontSize=18;fillColor=#f5f5f5;fontColor=#333333;strokeColor=#666666;" parent="1" vertex="1">
                    <mxGeometry x="288" y="1276" width="200" height="80" as="geometry"/>
                </mxCell>
                <mxCell id="371" value="" style="edgeStyle=none;html=1;fontSize=18;strokeWidth=2;fillColor=#f5f5f5;strokeColor=#666666;" parent="1" source="372" target="373" edge="1">
                    <mxGeometry relative="1" as="geometry"/>
                </mxCell>
                <mxCell id="372" value="解析成功函数指针置空" style="whiteSpace=wrap;html=1;strokeWidth=2;fontSize=18;fillColor=#f5f5f5;fontColor=#333333;strokeColor=#666666;" parent="1" vertex="1">
                    <mxGeometry x="328" y="1396" width="120" height="60" as="geometry"/>
                </mxCell>
                <mxCell id="373" value="释放负载数据区域内存" style="whiteSpace=wrap;html=1;fontSize=18;strokeWidth=2;fillColor=#f5f5f5;fontColor=#333333;strokeColor=#666666;" parent="1" vertex="1">
                    <mxGeometry x="328" y="1496" width="120" height="60" as="geometry"/>
                </mxCell>
                <mxCell id="374" value="" style="endArrow=none;html=1;fontSize=18;strokeWidth=2;exitX=0.5;exitY=1;exitDx=0;exitDy=0;entryX=0.5;entryY=0;entryDx=0;entryDy=0;fillColor=#f5f5f5;strokeColor=#666666;" parent="1" source="373" target="375" edge="1">
                    <mxGeometry width="50" height="50" relative="1" as="geometry">
                        <mxPoint x="388" y="1656" as="sourcePoint"/>
                        <mxPoint x="388" y="1726" as="targetPoint"/>
                    </mxGeometry>
                </mxCell>
                <mxCell id="375" value="" style="ellipse;whiteSpace=wrap;html=1;aspect=fixed;fontSize=18;strokeWidth=2;fillColor=#f5f5f5;fontColor=#333333;strokeColor=#666666;" parent="1" vertex="1">
                    <mxGeometry x="363" y="1596" width="50" height="50" as="geometry"/>
                </mxCell>
                <mxCell id="376" value="" style="endArrow=none;html=1;fontSize=18;strokeWidth=2;entryX=1;entryY=0.5;entryDx=0;entryDy=0;exitX=1;exitY=0.5;exitDx=0;exitDy=0;fillColor=#f5f5f5;strokeColor=#666666;" parent="1" source="375" target="370" edge="1">
                    <mxGeometry width="50" height="50" relative="1" as="geometry">
                        <mxPoint x="538" y="1566" as="sourcePoint"/>
                        <mxPoint x="588" y="1516" as="targetPoint"/>
                        <Array as="points">
                            <mxPoint x="518" y="1621"/>
                            <mxPoint x="518" y="1316"/>
                        </Array>
                    </mxGeometry>
                </mxCell>
                <mxCell id="377" value="是" style="text;html=1;align=center;verticalAlign=middle;resizable=0;points=[];autosize=1;strokeColor=#666666;fillColor=#f5f5f5;fontSize=18;fontColor=#333333;" parent="1" vertex="1">
                    <mxGeometry x="403" y="1351" width="30" height="30" as="geometry"/>
                </mxCell>
                <mxCell id="378" value="否" style="text;html=1;align=center;verticalAlign=middle;resizable=0;points=[];autosize=1;strokeColor=#666666;fillColor=#f5f5f5;fontSize=18;fontColor=#333333;" parent="1" vertex="1">
                    <mxGeometry x="488" y="1276" width="30" height="30" as="geometry"/>
                </mxCell>
                <mxCell id="379" value="调用结束" style="text;html=1;align=center;verticalAlign=middle;resizable=0;points=[];autosize=1;strokeColor=#666666;fillColor=#f5f5f5;fontSize=18;fontColor=#333333;" parent="1" vertex="1">
                    <mxGeometry x="408" y="1636" width="90" height="30" as="geometry"/>
                </mxCell>
                <mxCell id="380" value="" style="endArrow=none;html=1;fontSize=18;strokeWidth=2;entryX=0.5;entryY=0;entryDx=0;entryDy=0;startArrow=none;fillColor=#f5f5f5;strokeColor=#666666;" parent="1" source="381" target="370" edge="1">
                    <mxGeometry width="50" height="50" relative="1" as="geometry">
                        <mxPoint x="388" y="1236" as="sourcePoint"/>
                        <mxPoint x="588" y="1516" as="targetPoint"/>
                    </mxGeometry>
                </mxCell>
                <mxCell id="381" value="" style="ellipse;whiteSpace=wrap;html=1;aspect=fixed;fontSize=18;strokeWidth=2;fillColor=#f5f5f5;fontColor=#333333;strokeColor=#666666;" parent="1" vertex="1">
                    <mxGeometry x="363" y="1216" width="50" height="50" as="geometry"/>
                </mxCell>
                <mxCell id="382" value="调用开始" style="text;html=1;align=center;verticalAlign=middle;resizable=0;points=[];autosize=1;strokeColor=#666666;fillColor=#f5f5f5;fontSize=18;fontColor=#333333;" parent="1" vertex="1">
                    <mxGeometry x="413" y="1216" width="90" height="30" as="geometry"/>
                </mxCell>
                <mxCell id="383" value="" style="edgeStyle=none;html=1;fontSize=18;strokeWidth=2;fillColor=#f5f5f5;strokeColor=#666666;" parent="1" source="384" target="398" edge="1">
                    <mxGeometry relative="1" as="geometry"/>
                </mxCell>
                <mxCell id="384" value="传入参数合法？" style="rhombus;whiteSpace=wrap;html=1;strokeWidth=2;fontSize=18;fillColor=#f5f5f5;fontColor=#333333;strokeColor=#666666;" parent="1" vertex="1">
                    <mxGeometry x="578" y="1276" width="200" height="80" as="geometry"/>
                </mxCell>
                <mxCell id="385" value="" style="edgeStyle=none;html=1;fontSize=18;strokeWidth=2;fillColor=#f5f5f5;strokeColor=#666666;" parent="1" target="386" edge="1">
                    <mxGeometry relative="1" as="geometry">
                        <mxPoint x="678" y="1456" as="sourcePoint"/>
                    </mxGeometry>
                </mxCell>
                <mxCell id="386" value="改变帧结构体成员" style="whiteSpace=wrap;html=1;fontSize=18;strokeWidth=2;fillColor=#f5f5f5;fontColor=#333333;strokeColor=#666666;" parent="1" vertex="1">
                    <mxGeometry x="618" y="1516" width="120" height="60" as="geometry"/>
                </mxCell>
                <mxCell id="387" value="" style="endArrow=none;html=1;fontSize=18;strokeWidth=2;entryX=1;entryY=0.5;entryDx=0;entryDy=0;exitX=1;exitY=0.5;exitDx=0;exitDy=0;fillColor=#f5f5f5;strokeColor=#666666;" parent="1" source="399" target="384" edge="1">
                    <mxGeometry width="50" height="50" relative="1" as="geometry">
                        <mxPoint x="828" y="1566" as="sourcePoint"/>
                        <mxPoint x="878" y="1516" as="targetPoint"/>
                        <Array as="points">
                            <mxPoint x="808" y="1651"/>
                            <mxPoint x="808" y="1316"/>
                        </Array>
                    </mxGeometry>
                </mxCell>
                <mxCell id="388" value="是" style="text;html=1;align=center;verticalAlign=middle;resizable=0;points=[];autosize=1;strokeColor=#666666;fillColor=#f5f5f5;fontSize=18;fontColor=#333333;" parent="1" vertex="1">
                    <mxGeometry x="693" y="1351" width="30" height="30" as="geometry"/>
                </mxCell>
                <mxCell id="389" value="否" style="text;html=1;align=center;verticalAlign=middle;resizable=0;points=[];autosize=1;strokeColor=#666666;fillColor=#f5f5f5;fontSize=18;fontColor=#333333;" parent="1" vertex="1">
                    <mxGeometry x="778" y="1276" width="30" height="30" as="geometry"/>
                </mxCell>
                <mxCell id="390" value="调用结束" style="text;html=1;align=center;verticalAlign=middle;resizable=0;points=[];autosize=1;strokeColor=#666666;fillColor=#f5f5f5;fontSize=18;fontColor=#333333;" parent="1" vertex="1">
                    <mxGeometry x="698" y="1656" width="90" height="30" as="geometry"/>
                </mxCell>
                <mxCell id="391" value="" style="endArrow=none;html=1;fontSize=18;strokeWidth=2;entryX=0.5;entryY=0;entryDx=0;entryDy=0;startArrow=none;fillColor=#f5f5f5;strokeColor=#666666;" parent="1" source="392" target="384" edge="1">
                    <mxGeometry width="50" height="50" relative="1" as="geometry">
                        <mxPoint x="678" y="1236" as="sourcePoint"/>
                        <mxPoint x="878" y="1516" as="targetPoint"/>
                    </mxGeometry>
                </mxCell>
                <mxCell id="392" value="" style="ellipse;whiteSpace=wrap;html=1;aspect=fixed;fontSize=18;strokeWidth=2;fillColor=#f5f5f5;fontColor=#333333;strokeColor=#666666;" parent="1" vertex="1">
                    <mxGeometry x="653" y="1216" width="50" height="50" as="geometry"/>
                </mxCell>
                <mxCell id="393" value="调用开始" style="text;html=1;align=center;verticalAlign=middle;resizable=0;points=[];autosize=1;strokeColor=#666666;fillColor=#f5f5f5;fontSize=18;fontColor=#333333;" parent="1" vertex="1">
                    <mxGeometry x="703" y="1216" width="90" height="30" as="geometry"/>
                </mxCell>
                <mxCell id="394" value="init" style="text;html=1;align=center;verticalAlign=middle;resizable=0;points=[];autosize=1;strokeColor=#666666;fillColor=#f5f5f5;fontSize=18;fontColor=#333333;" parent="1" vertex="1">
                    <mxGeometry x="8" y="1191" width="40" height="30" as="geometry"/>
                </mxCell>
                <mxCell id="395" value="deinit" style="text;html=1;align=center;verticalAlign=middle;resizable=0;points=[];autosize=1;strokeColor=#666666;fillColor=#f5f5f5;fontSize=18;fontColor=#333333;" parent="1" vertex="1">
                    <mxGeometry x="278" y="1191" width="60" height="30" as="geometry"/>
                </mxCell>
                <mxCell id="396" value="hip_pack" style="text;html=1;align=center;verticalAlign=middle;resizable=0;points=[];autosize=1;strokeColor=#666666;fillColor=#f5f5f5;fontSize=18;fontColor=#333333;" parent="1" vertex="1">
                    <mxGeometry x="567" y="1203" width="82" height="26" as="geometry"/>
                </mxCell>
                <mxCell id="397" value="" style="endArrow=none;html=1;fontSize=18;strokeWidth=2;entryX=0.5;entryY=1;entryDx=0;entryDy=0;startArrow=none;fillColor=#f5f5f5;strokeColor=#666666;" parent="1" source="399" target="386" edge="1">
                    <mxGeometry width="50" height="50" relative="1" as="geometry">
                        <mxPoint x="678" y="1656" as="sourcePoint"/>
                        <mxPoint x="778" y="1436" as="targetPoint"/>
                        <Array as="points"/>
                    </mxGeometry>
                </mxCell>
                <mxCell id="398" value="清空即将存放打包帧空间" style="whiteSpace=wrap;html=1;fontSize=18;strokeWidth=2;fillColor=#f5f5f5;fontColor=#333333;strokeColor=#666666;" parent="1" vertex="1">
                    <mxGeometry x="618" y="1391" width="120" height="60" as="geometry"/>
                </mxCell>
                <mxCell id="399" value="" style="ellipse;whiteSpace=wrap;html=1;aspect=fixed;fontSize=18;strokeWidth=2;fillColor=#f5f5f5;fontColor=#333333;strokeColor=#666666;" parent="1" vertex="1">
                    <mxGeometry x="653" y="1626" width="50" height="50" as="geometry"/>
                </mxCell>
                <mxCell id="443" value="" style="edgeStyle=none;html=1;strokeWidth=2;fontSize=18;fillColor=#f5f5f5;strokeColor=#666666;" parent="1" source="444" edge="1">
                    <mxGeometry relative="1" as="geometry">
                        <mxPoint x="1475" y="1432.4999999999995" as="targetPoint"/>
                    </mxGeometry>
                </mxCell>
                <mxCell id="444" value="传入参数合法？" style="rhombus;whiteSpace=wrap;html=1;strokeWidth=2;fontSize=18;fillColor=#f5f5f5;fontColor=#333333;strokeColor=#666666;" parent="1" vertex="1">
                    <mxGeometry x="1375" y="1312.5" width="200" height="80" as="geometry"/>
                </mxCell>
                <mxCell id="445" value="" style="endArrow=none;html=1;fontSize=18;strokeWidth=2;exitX=0.5;exitY=1;exitDx=0;exitDy=0;fillColor=#f5f5f5;strokeColor=#666666;" parent="1" edge="1">
                    <mxGeometry width="50" height="50" relative="1" as="geometry">
                        <mxPoint x="1475" y="1692.4999999999995" as="sourcePoint"/>
                        <mxPoint x="1475" y="1762.4999999999995" as="targetPoint"/>
                    </mxGeometry>
                </mxCell>
                <mxCell id="446" value="" style="ellipse;whiteSpace=wrap;html=1;aspect=fixed;fontSize=18;strokeWidth=2;fillColor=#f5f5f5;fontColor=#333333;strokeColor=#666666;" parent="1" vertex="1">
                    <mxGeometry x="1450" y="1732.5" width="50" height="50" as="geometry"/>
                </mxCell>
                <mxCell id="447" value="" style="endArrow=none;html=1;fontSize=18;strokeWidth=2;entryX=1;entryY=0.5;entryDx=0;entryDy=0;exitX=1;exitY=0.5;exitDx=0;exitDy=0;fillColor=#f5f5f5;strokeColor=#666666;" parent="1" source="446" target="444" edge="1">
                    <mxGeometry width="50" height="50" relative="1" as="geometry">
                        <mxPoint x="1625" y="1602.5" as="sourcePoint"/>
                        <mxPoint x="1675" y="1552.5" as="targetPoint"/>
                        <Array as="points">
                            <mxPoint x="1605" y="1757.5"/>
                            <mxPoint x="1605" y="1352.5"/>
                        </Array>
                    </mxGeometry>
                </mxCell>
                <mxCell id="448" value="是" style="text;html=1;align=center;verticalAlign=middle;resizable=0;points=[];autosize=1;strokeColor=#666666;fillColor=#f5f5f5;fontSize=18;fontColor=#333333;" parent="1" vertex="1">
                    <mxGeometry x="1490" y="1387.5" width="30" height="30" as="geometry"/>
                </mxCell>
                <mxCell id="449" value="否" style="text;html=1;align=center;verticalAlign=middle;resizable=0;points=[];autosize=1;strokeColor=#666666;fillColor=#f5f5f5;fontSize=18;fontColor=#333333;" parent="1" vertex="1">
                    <mxGeometry x="1575" y="1312.5" width="30" height="30" as="geometry"/>
                </mxCell>
                <mxCell id="450" value="调用结束" style="text;html=1;align=center;verticalAlign=middle;resizable=0;points=[];autosize=1;strokeColor=#666666;fillColor=#f5f5f5;fontSize=18;fontColor=#333333;" parent="1" vertex="1">
                    <mxGeometry x="1500" y="1773" width="90" height="30" as="geometry"/>
                </mxCell>
                <mxCell id="451" value="" style="endArrow=none;html=1;fontSize=18;strokeWidth=2;entryX=0.5;entryY=0;entryDx=0;entryDy=0;startArrow=none;fillColor=#f5f5f5;strokeColor=#666666;" parent="1" source="452" target="444" edge="1">
                    <mxGeometry width="50" height="50" relative="1" as="geometry">
                        <mxPoint x="1475" y="1272.5" as="sourcePoint"/>
                        <mxPoint x="1675" y="1552.5" as="targetPoint"/>
                    </mxGeometry>
                </mxCell>
                <mxCell id="452" value="" style="ellipse;whiteSpace=wrap;html=1;aspect=fixed;fontSize=18;strokeWidth=2;fillColor=#f5f5f5;fontColor=#333333;strokeColor=#666666;" parent="1" vertex="1">
                    <mxGeometry x="1450" y="1252.5" width="50" height="50" as="geometry"/>
                </mxCell>
                <mxCell id="453" value="调用开始" style="text;html=1;align=center;verticalAlign=middle;resizable=0;points=[];autosize=1;strokeColor=#666666;fillColor=#f5f5f5;fontSize=18;fontColor=#333333;" parent="1" vertex="1">
                    <mxGeometry x="1500" y="1252.5" width="90" height="30" as="geometry"/>
                </mxCell>
                <mxCell id="454" value="hip_parse" style="text;html=1;align=center;verticalAlign=middle;resizable=0;points=[];autosize=1;strokeColor=#666666;fillColor=#f5f5f5;fontSize=18;fontColor=#333333;" parent="1" vertex="1">
                    <mxGeometry x="891" y="1220" width="89" height="26" as="geometry"/>
                </mxCell>
                <mxCell id="455" value="未解析一个状态？" style="rhombus;whiteSpace=wrap;html=1;strokeWidth=2;fontSize=18;fillColor=#f5f5f5;fontColor=#333333;strokeColor=#666666;" parent="1" vertex="1">
                    <mxGeometry x="1375" y="1417.5" width="200" height="80" as="geometry"/>
                </mxCell>
                <mxCell id="456" value="" style="endArrow=none;html=1;fontSize=18;strokeWidth=2;entryX=1;entryY=0.5;entryDx=0;entryDy=0;fillColor=#f5f5f5;strokeColor=#666666;" parent="1" target="455" edge="1">
                    <mxGeometry width="50" height="50" relative="1" as="geometry">
                        <mxPoint x="1475" y="1692.4999999999995" as="sourcePoint"/>
                        <mxPoint x="1575" y="1472.5" as="targetPoint"/>
                        <Array as="points">
                            <mxPoint x="1575" y="1692.5"/>
                        </Array>
                    </mxGeometry>
                </mxCell>
                <mxCell id="457" value="否" style="text;html=1;align=center;verticalAlign=middle;resizable=0;points=[];autosize=1;strokeColor=#666666;fillColor=#f5f5f5;fontSize=18;fontColor=#333333;" parent="1" vertex="1">
                    <mxGeometry x="1565" y="1422.5" width="30" height="30" as="geometry"/>
                </mxCell>
                <mxCell id="458" value="是" style="text;html=1;align=center;verticalAlign=middle;resizable=0;points=[];autosize=1;strokeColor=#666666;fillColor=#f5f5f5;fontSize=18;fontColor=#333333;" parent="1" vertex="1">
                    <mxGeometry x="1500" y="1485" width="30" height="30" as="geometry"/>
                </mxCell>
                <mxCell id="459" value="复位状态机" style="whiteSpace=wrap;html=1;fontSize=18;strokeWidth=2;fillColor=#f5f5f5;fontColor=#333333;strokeColor=#666666;" parent="1" vertex="1">
                    <mxGeometry x="895" y="1585" width="120" height="60" as="geometry"/>
                </mxCell>
                <mxCell id="460" value="&lt;font face=&quot;helvetica&quot; color=&quot;#000000&quot;&gt;解析hip头部？&lt;/font&gt;" style="rhombus;whiteSpace=wrap;html=1;strokeWidth=2;fontSize=18;fillColor=#f5f5f5;fontColor=#333333;strokeColor=#666666;" parent="1" vertex="1">
                    <mxGeometry x="1106" y="1362.5" width="200" height="80" as="geometry"/>
                </mxCell>
                <mxCell id="461" value="解析hip命令？" style="rhombus;whiteSpace=wrap;html=1;strokeWidth=2;fontSize=18;fillColor=#f5f5f5;fontColor=#333333;strokeColor=#666666;" parent="1" vertex="1">
                    <mxGeometry x="1106" y="1485" width="200" height="80" as="geometry"/>
                </mxCell>
                <mxCell id="462" value="解析hip长度？" style="rhombus;whiteSpace=wrap;html=1;strokeWidth=2;fontSize=18;fillColor=#f5f5f5;fontColor=#333333;strokeColor=#666666;" parent="1" vertex="1">
                    <mxGeometry x="1106" y="1585" width="200" height="80" as="geometry"/>
                </mxCell>
                <mxCell id="463" value="解析hip设备类型？" style="rhombus;whiteSpace=wrap;html=1;strokeWidth=2;fontSize=18;fillColor=#f5f5f5;fontColor=#333333;strokeColor=#666666;" parent="1" vertex="1">
                    <mxGeometry x="1106" y="1695" width="200" height="80" as="geometry"/>
                </mxCell>
                <mxCell id="464" value="解析hip设备id？" style="rhombus;whiteSpace=wrap;html=1;strokeWidth=2;fontSize=18;fillColor=#f5f5f5;fontColor=#333333;strokeColor=#666666;" parent="1" vertex="1">
                    <mxGeometry x="1106" y="1797.5" width="200" height="80" as="geometry"/>
                </mxCell>
                <mxCell id="465" value="解析hip序列号？" style="rhombus;whiteSpace=wrap;html=1;strokeWidth=2;fontSize=18;fillColor=#f5f5f5;fontColor=#333333;strokeColor=#666666;" parent="1" vertex="1">
                    <mxGeometry x="1106" y="1909" width="200" height="80" as="geometry"/>
                </mxCell>
                <mxCell id="466" value="" style="endArrow=classic;html=1;fontSize=18;strokeWidth=2;exitX=0.5;exitY=0;exitDx=0;exitDy=0;entryX=0;entryY=0.5;entryDx=0;entryDy=0;fillColor=#f5f5f5;strokeColor=#666666;" parent="1" source="459" target="455" edge="1">
                    <mxGeometry width="50" height="50" relative="1" as="geometry">
                        <mxPoint x="1215" y="1570" as="sourcePoint"/>
                        <mxPoint x="1265" y="1520" as="targetPoint"/>
                        <Array as="points">
                            <mxPoint x="955" y="1250"/>
                            <mxPoint x="1345" y="1250"/>
                            <mxPoint x="1345" y="1458"/>
                        </Array>
                    </mxGeometry>
                </mxCell>
                <mxCell id="467" value="" style="endArrow=classic;html=1;fontSize=18;strokeWidth=2;entryX=0.5;entryY=0;entryDx=0;entryDy=0;exitX=0.5;exitY=1;exitDx=0;exitDy=0;fillColor=#f5f5f5;strokeColor=#666666;" parent="1" source="455" target="460" edge="1">
                    <mxGeometry width="50" height="50" relative="1" as="geometry">
                        <mxPoint x="1235" y="1560" as="sourcePoint"/>
                        <mxPoint x="1265" y="1520" as="targetPoint"/>
                        <Array as="points">
                            <mxPoint x="1475" y="1520"/>
                            <mxPoint x="1325" y="1520"/>
                            <mxPoint x="1325" y="1320"/>
                            <mxPoint x="1206" y="1320"/>
                        </Array>
                    </mxGeometry>
                </mxCell>
                <mxCell id="468" value="" style="endArrow=none;html=1;fontSize=18;strokeWidth=2;entryX=0;entryY=0.5;entryDx=0;entryDy=0;exitX=1;exitY=0.5;exitDx=0;exitDy=0;fillColor=#f5f5f5;strokeColor=#666666;" parent="1" source="459" target="460" edge="1">
                    <mxGeometry width="50" height="50" relative="1" as="geometry">
                        <mxPoint x="1215" y="1570" as="sourcePoint"/>
                        <mxPoint x="1265" y="1520" as="targetPoint"/>
                    </mxGeometry>
                </mxCell>
                <mxCell id="469" value="" style="endArrow=none;html=1;fontSize=18;strokeWidth=2;exitX=1;exitY=0.5;exitDx=0;exitDy=0;entryX=0;entryY=0.5;entryDx=0;entryDy=0;fillColor=#f5f5f5;strokeColor=#666666;" parent="1" source="459" target="461" edge="1">
                    <mxGeometry width="50" height="50" relative="1" as="geometry">
                        <mxPoint x="1215" y="1570" as="sourcePoint"/>
                        <mxPoint x="1265" y="1520" as="targetPoint"/>
                    </mxGeometry>
                </mxCell>
                <mxCell id="470" value="" style="endArrow=none;html=1;fontSize=18;strokeWidth=2;exitX=0;exitY=0.5;exitDx=0;exitDy=0;entryX=1;entryY=0.5;entryDx=0;entryDy=0;fillColor=#f5f5f5;strokeColor=#666666;" parent="1" source="462" target="459" edge="1">
                    <mxGeometry width="50" height="50" relative="1" as="geometry">
                        <mxPoint x="1225" y="1580" as="sourcePoint"/>
                        <mxPoint x="1275" y="1530" as="targetPoint"/>
                    </mxGeometry>
                </mxCell>
                <mxCell id="471" value="" style="endArrow=none;html=1;fontSize=18;strokeWidth=2;exitX=1;exitY=0.5;exitDx=0;exitDy=0;entryX=0;entryY=0.5;entryDx=0;entryDy=0;fillColor=#f5f5f5;strokeColor=#666666;" parent="1" source="459" target="464" edge="1">
                    <mxGeometry width="50" height="50" relative="1" as="geometry">
                        <mxPoint x="1245" y="1600" as="sourcePoint"/>
                        <mxPoint x="1295" y="1550" as="targetPoint"/>
                    </mxGeometry>
                </mxCell>
                <mxCell id="472" value="" style="endArrow=none;html=1;fontSize=18;strokeWidth=2;exitX=0;exitY=0.5;exitDx=0;exitDy=0;entryX=1;entryY=0.5;entryDx=0;entryDy=0;fillColor=#f5f5f5;strokeColor=#666666;" parent="1" source="465" target="459" edge="1">
                    <mxGeometry width="50" height="50" relative="1" as="geometry">
                        <mxPoint x="1255" y="1610" as="sourcePoint"/>
                        <mxPoint x="1305" y="1560" as="targetPoint"/>
                    </mxGeometry>
                </mxCell>
                <mxCell id="473" value="" style="endArrow=none;html=1;fontSize=18;strokeWidth=2;exitX=0.5;exitY=0;exitDx=0;exitDy=0;entryX=0.5;entryY=1;entryDx=0;entryDy=0;fillColor=#f5f5f5;strokeColor=#666666;" parent="1" source="461" target="460" edge="1">
                    <mxGeometry width="50" height="50" relative="1" as="geometry">
                        <mxPoint x="1215" y="1570" as="sourcePoint"/>
                        <mxPoint x="1195" y="1450" as="targetPoint"/>
                    </mxGeometry>
                </mxCell>
                <mxCell id="474" value="" style="endArrow=none;html=1;fontSize=18;strokeWidth=2;exitX=0.5;exitY=0;exitDx=0;exitDy=0;entryX=0.5;entryY=1;entryDx=0;entryDy=0;fillColor=#f5f5f5;strokeColor=#666666;" parent="1" source="462" target="461" edge="1">
                    <mxGeometry width="50" height="50" relative="1" as="geometry">
                        <mxPoint x="1265" y="1620" as="sourcePoint"/>
                        <mxPoint x="1315" y="1570" as="targetPoint"/>
                    </mxGeometry>
                </mxCell>
                <mxCell id="475" value="" style="endArrow=none;html=1;fontSize=18;strokeWidth=2;exitX=0.5;exitY=1;exitDx=0;exitDy=0;entryX=0.5;entryY=0;entryDx=0;entryDy=0;fillColor=#f5f5f5;strokeColor=#666666;" parent="1" source="462" target="463" edge="1">
                    <mxGeometry width="50" height="50" relative="1" as="geometry">
                        <mxPoint x="1275" y="1630" as="sourcePoint"/>
                        <mxPoint x="1325" y="1580" as="targetPoint"/>
                    </mxGeometry>
                </mxCell>
                <mxCell id="476" value="" style="endArrow=none;html=1;fontSize=18;strokeWidth=2;exitX=0.5;exitY=1;exitDx=0;exitDy=0;entryX=0.5;entryY=0;entryDx=0;entryDy=0;fillColor=#f5f5f5;strokeColor=#666666;" parent="1" source="463" target="464" edge="1">
                    <mxGeometry width="50" height="50" relative="1" as="geometry">
                        <mxPoint x="1285" y="1640" as="sourcePoint"/>
                        <mxPoint x="1335" y="1590" as="targetPoint"/>
                    </mxGeometry>
                </mxCell>
                <mxCell id="477" value="" style="endArrow=none;html=1;fontSize=18;strokeWidth=2;exitX=0.5;exitY=1;exitDx=0;exitDy=0;entryX=0.5;entryY=0;entryDx=0;entryDy=0;fillColor=#f5f5f5;strokeColor=#666666;" parent="1" source="464" target="465" edge="1">
                    <mxGeometry width="50" height="50" relative="1" as="geometry">
                        <mxPoint x="1295" y="1650" as="sourcePoint"/>
                        <mxPoint x="1345" y="1600" as="targetPoint"/>
                    </mxGeometry>
                </mxCell>
                <mxCell id="478" value="解析出错" style="text;html=1;align=center;verticalAlign=middle;resizable=0;points=[];autosize=1;strokeColor=#666666;fillColor=#f5f5f5;fontSize=18;fontColor=#333333;" parent="1" vertex="1">
                    <mxGeometry x="1010" y="1515" width="90" height="30" as="geometry"/>
                </mxCell>
                <mxCell id="479" value="" style="endArrow=classic;html=1;fontSize=18;strokeWidth=2;exitX=0.5;exitY=1;exitDx=0;exitDy=0;entryX=0.5;entryY=1;entryDx=0;entryDy=0;startArrow=none;fillColor=#f5f5f5;strokeColor=#666666;" parent="1" source="484" target="459" edge="1">
                    <mxGeometry width="50" height="50" relative="1" as="geometry">
                        <mxPoint x="1215" y="1720" as="sourcePoint"/>
                        <mxPoint x="1265" y="1670" as="targetPoint"/>
                        <Array as="points"/>
                    </mxGeometry>
                </mxCell>
                <mxCell id="481" value="" style="endArrow=none;html=1;fontSize=18;strokeWidth=2;exitX=0;exitY=0.5;exitDx=0;exitDy=0;entryX=1;entryY=0.5;entryDx=0;entryDy=0;startArrow=none;fillColor=#f5f5f5;strokeColor=#666666;" parent="1" source="491" target="459" edge="1">
                    <mxGeometry width="50" height="50" relative="1" as="geometry">
                        <mxPoint x="1104" y="1735" as="sourcePoint"/>
                        <mxPoint x="1015" y="1615" as="targetPoint"/>
                    </mxGeometry>
                </mxCell>
                <mxCell id="482" value="解析出错" style="text;html=1;align=center;verticalAlign=middle;resizable=0;points=[];autosize=1;strokeColor=#666666;fillColor=#f5f5f5;fontSize=18;fontColor=#333333;" parent="1" vertex="1">
                    <mxGeometry x="1025" y="1595" width="90" height="30" as="geometry"/>
                </mxCell>
                <mxCell id="483" value="解析成功" style="text;html=1;align=center;verticalAlign=middle;resizable=0;points=[];autosize=1;strokeColor=#666666;fillColor=#f5f5f5;fontSize=18;fontColor=#333333;" parent="1" vertex="1">
                    <mxGeometry x="1038" y="2170" width="90" height="30" as="geometry"/>
                </mxCell>
                <mxCell id="484" value="调用解析成功函数" style="whiteSpace=wrap;html=1;fontSize=18;strokeWidth=2;fillColor=#f5f5f5;fontColor=#333333;strokeColor=#666666;" parent="1" vertex="1">
                    <mxGeometry x="896" y="1807.5" width="120" height="60" as="geometry"/>
                </mxCell>
                <mxCell id="485" value="" style="endArrow=none;html=1;fontSize=18;strokeWidth=2;entryX=0.5;entryY=1;entryDx=0;entryDy=0;exitX=0.5;exitY=1;exitDx=0;exitDy=0;fillColor=#f5f5f5;strokeColor=#666666;" parent="1" source="491" target="484" edge="1">
                    <mxGeometry width="50" height="50" relative="1" as="geometry">
                        <mxPoint x="1038" y="2223" as="sourcePoint"/>
                        <mxPoint x="955" y="1645" as="targetPoint"/>
                        <Array as="points">
                            <mxPoint x="1204" y="2209"/>
                            <mxPoint x="950" y="2209"/>
                            <mxPoint x="950" y="2151"/>
                        </Array>
                    </mxGeometry>
                </mxCell>
                <mxCell id="486" value="解析hip序列号？" style="rhombus;whiteSpace=wrap;html=1;strokeWidth=2;fontSize=18;fillColor=#f5f5f5;fontColor=#333333;strokeColor=#666666;" parent="1" vertex="1">
                    <mxGeometry x="1106" y="2011" width="200" height="80" as="geometry"/>
                </mxCell>
                <mxCell id="487" value="" style="endArrow=none;html=1;exitX=0.5;exitY=1;exitDx=0;exitDy=0;entryX=0.5;entryY=0;entryDx=0;entryDy=0;strokeWidth=2;fillColor=#f5f5f5;strokeColor=#666666;" parent="1" source="465" target="486" edge="1">
                    <mxGeometry width="50" height="50" relative="1" as="geometry">
                        <mxPoint x="1216" y="1903" as="sourcePoint"/>
                        <mxPoint x="1266" y="1853" as="targetPoint"/>
                    </mxGeometry>
                </mxCell>
                <mxCell id="489" value="" style="endArrow=none;html=1;strokeWidth=2;exitX=0;exitY=0.5;exitDx=0;exitDy=0;entryX=1;entryY=0.5;entryDx=0;entryDy=0;fillColor=#f5f5f5;strokeColor=#666666;" parent="1" source="486" target="459" edge="1">
                    <mxGeometry width="50" height="50" relative="1" as="geometry">
                        <mxPoint x="1075" y="1903" as="sourcePoint"/>
                        <mxPoint x="1125" y="1853" as="targetPoint"/>
                    </mxGeometry>
                </mxCell>
                <mxCell id="480" value="解析出错" style="text;html=1;align=center;verticalAlign=middle;resizable=0;points=[];autosize=1;strokeColor=#666666;fillColor=#f5f5f5;fontSize=18;fontColor=#333333;" parent="1" vertex="1">
                    <mxGeometry x="1008" y="1686" width="90" height="30" as="geometry"/>
                </mxCell>
                <mxCell id="490" value="" style="endArrow=none;html=1;fontSize=18;strokeWidth=2;exitX=0;exitY=0.5;exitDx=0;exitDy=0;entryX=1;entryY=0.5;entryDx=0;entryDy=0;fillColor=#f5f5f5;strokeColor=#666666;" parent="1" source="463" target="459" edge="1">
                    <mxGeometry width="50" height="50" relative="1" as="geometry">
                        <mxPoint x="1103.9999999999995" y="1735" as="sourcePoint"/>
                        <mxPoint x="1015" y="1615" as="targetPoint"/>
                    </mxGeometry>
                </mxCell>
                <mxCell id="491" value="解析hip负载数据？" style="rhombus;whiteSpace=wrap;html=1;strokeWidth=2;fontSize=18;fillColor=#f5f5f5;fontColor=#333333;strokeColor=#666666;" parent="1" vertex="1">
                    <mxGeometry x="1104" y="2113" width="200" height="80" as="geometry"/>
                </mxCell>
                <mxCell id="492" value="" style="endArrow=none;html=1;entryX=0.5;entryY=0;entryDx=0;entryDy=0;strokeWidth=2;fillColor=#f5f5f5;strokeColor=#666666;" parent="1" target="491" edge="1">
                    <mxGeometry width="50" height="50" relative="1" as="geometry">
                        <mxPoint x="1204" y="2088" as="sourcePoint"/>
                        <mxPoint x="1213.9999999999995" y="2021" as="targetPoint"/>
                    </mxGeometry>
                </mxCell>
                <mxCell id="493" value="" style="endArrow=none;html=1;strokeWidth=2;entryX=1;entryY=0.5;entryDx=0;entryDy=0;fillColor=#f5f5f5;strokeColor=#666666;" parent="1" target="460" edge="1">
                    <mxGeometry width="50" height="50" relative="1" as="geometry">
                        <mxPoint x="953" y="1555" as="sourcePoint"/>
                        <mxPoint x="1266" y="1736" as="targetPoint"/>
                        <Array as="points">
                            <mxPoint x="863" y="1555"/>
                            <mxPoint x="857" y="2231"/>
                            <mxPoint x="1306" y="2231"/>
                            <mxPoint x="1306" y="2157"/>
                        </Array>
                    </mxGeometry>
                </mxCell>
                <mxCell id="494" value="&lt;span style=&quot;font-family: &amp;#34;helvetica&amp;#34; ; font-size: 18px ; font-style: normal ; font-weight: 400 ; letter-spacing: normal ; text-align: center ; text-indent: 0px ; text-transform: none ; word-spacing: 0px ; display: inline ; float: none ; background-color: rgb(255 , 255 , 255)&quot;&gt;&lt;font color=&quot;#000000&quot;&gt;解析尚未成功&lt;/font&gt;&lt;/span&gt;" style="text;whiteSpace=wrap;html=1;fillColor=#f5f5f5;fontColor=#333333;strokeColor=#666666;" parent="1" vertex="1">
                    <mxGeometry x="1310" y="2170" width="110" height="30" as="geometry"/>
                </mxCell>
                <mxCell id="495" value="" style="endArrow=none;html=1;strokeWidth=2;entryX=1;entryY=0.5;entryDx=0;entryDy=0;fillColor=#f5f5f5;strokeColor=#666666;" parent="1" target="167" edge="1">
                    <mxGeometry width="50" height="50" relative="1" as="geometry">
                        <mxPoint x="940" y="640" as="sourcePoint"/>
                        <mxPoint x="1270" y="800" as="targetPoint"/>
                        <Array as="points">
                            <mxPoint x="850" y="640"/>
                            <mxPoint x="850" y="1150"/>
                            <mxPoint x="1292" y="1150"/>
                        </Array>
                    </mxGeometry>
                </mxCell>
                <mxCell id="496" value="解析尚未成功" style="text;html=1;align=center;verticalAlign=middle;resizable=0;points=[];autosize=1;strokeColor=#666666;fillColor=#f5f5f5;fontSize=18;fontColor=#333333;" parent="1" vertex="1">
                    <mxGeometry x="1290" y="1092" width="120" height="30" as="geometry"/>
                </mxCell>
            </root>
        </mxGraphModel>
    </diagram>
</mxfile>